<svg enable-background="new 0 0 1709 1536" height="1536" viewBox="0 0 1709 1536" width="1709" xmlns="http://www.w3.org/2000/svg" xmlns:xlink="http://www.w3.org/1999/xlink"><linearGradient id="a" gradientUnits="userSpaceOnUse" x1="853.996" x2="853.996" y1="1204.326" y2="195.792"><stop offset="0" stop-color="#cee3ff"/><stop offset=".378" stop-color="#d2e5fe"/><stop offset=".757" stop-color="#deebfb"/><stop offset="1" stop-color="#eaf1f8"/></linearGradient><linearGradient id="b" gradientUnits="userSpaceOnUse" x1="1237.891" x2="1192.887" y1="889.699" y2="1370.188"><stop offset="0" stop-color="#fff"/><stop offset=".237" stop-color="#fbfcfe"/><stop offset=".465" stop-color="#f0f4fd"/><stop offset=".69" stop-color="#dce5fa"/><stop offset=".911" stop-color="#c1d2f6"/><stop offset="1" stop-color="#b4c8f4"/></linearGradient><linearGradient id="c" gradientUnits="userSpaceOnUse" x1="1167.333" x2="1207.441" y1="1047.577" y2="1004.162"><stop offset="0" stop-color="#f0a37c"/><stop offset="1" stop-color="#e48362"/></linearGradient><linearGradient id="d" gradientTransform="matrix(1.0117 -.0649 .0581 .9067 -159.4313 256.894)" gradientUnits="userSpaceOnUse" x1="1196.596" x2="1373.494" y1="790.885" y2="776.835"><stop offset="0" stop-color="#f3ab83"/><stop offset=".3" stop-color="#f1a67f"/><stop offset=".672" stop-color="#eb9772"/><stop offset="1" stop-color="#e48362"/></linearGradient><linearGradient id="e" gradientUnits="userSpaceOnUse" x1="1055.395" x2="1265.676" y1="708.7" y2="870.064"><stop offset="0" stop-color="#ff821e"/><stop offset="1" stop-color="#d9631d"/></linearGradient><linearGradient id="f"><stop offset="0" stop-color="#2275ec"/><stop offset=".262" stop-color="#378bec"/><stop offset=".806" stop-color="#6dc5ed"/><stop offset="1" stop-color="#82dbed"/></linearGradient><linearGradient id="g" gradientUnits="userSpaceOnUse" x1="1266.43" x2="1170.728" xlink:href="#f" y1="942.764" y2="892.999"/><linearGradient id="h" gradientUnits="userSpaceOnUse" x1="1213.192" x2="996.624" y1="926.883" y2="828.038"><stop offset="0" stop-color="#73cbed"/><stop offset=".429" stop-color="#b5e3f5"/><stop offset=".813" stop-color="#eaf7fc"/><stop offset="1" stop-color="#fefefe"/></linearGradient><linearGradient id="i" gradientUnits="userSpaceOnUse" x1="1230.466" x2="1144.77" y1="1142.466" y2="1019.581"><stop offset="0" stop-color="#2275ec"/><stop offset="1" stop-color="#8cb3ff"/></linearGradient><linearGradient id="j" gradientUnits="userSpaceOnUse" x1="1176.936" x2="1029.882" y1="1216.703" y2="1195.696"><stop offset="0" stop-color="#b4c8f4"/><stop offset=".227" stop-color="#bfd0f6"/><stop offset=".618" stop-color="#dbe4fa"/><stop offset="1" stop-color="#fcfdff"/></linearGradient><linearGradient id="k" gradientUnits="userSpaceOnUse" x1="1079.093" x2="1155.475" y1="1123.554" y2="1123.554"><stop offset="0" stop-color="#fff"/><stop offset=".215" stop-color="#f7f9fe"/><stop offset=".554" stop-color="#e0e8fb"/><stop offset=".971" stop-color="#bccdf5"/><stop offset="1" stop-color="#b9cbf5"/></linearGradient><linearGradient id="l" gradientUnits="userSpaceOnUse" x1="1325.394" x2="1344.924" y1="1148.17" y2="1341.642"><stop offset="0" stop-color="#eaf0fc"/><stop offset=".278" stop-color="#e6edfb"/><stop offset=".545" stop-color="#dbe5fa"/><stop offset=".808" stop-color="#c7d6f7"/><stop offset="1" stop-color="#b4c8f4"/></linearGradient><linearGradient id="m" gradientUnits="userSpaceOnUse" x1="1266.882" x2="1157.32" y1="1228.315" y2="1134.918"><stop offset="0" stop-color="#fff"/><stop offset=".217" stop-color="#fafcfe"/><stop offset=".459" stop-color="#edf2fc"/><stop offset=".712" stop-color="#d7e2f9"/><stop offset=".971" stop-color="#b8cbf5"/><stop offset="1" stop-color="#b4c8f4"/></linearGradient><linearGradient id="n" gradientUnits="userSpaceOnUse" x1="913.133" x2="1173.721" y1="1271.677" y2="1271.677"><stop offset="0" stop-color="#7fc1fd"/><stop offset=".002" stop-color="#80c2fd"/><stop offset=".075" stop-color="#a7d4fe"/><stop offset=".151" stop-color="#c7e4fe"/><stop offset=".229" stop-color="#dff0ff"/><stop offset=".311" stop-color="#f1f8ff"/><stop offset=".398" stop-color="#fcfdff"/><stop offset=".5" stop-color="#fff"/><stop offset=".617" stop-color="#fcfdff"/><stop offset=".702" stop-color="#f3f9fe"/><stop offset=".777" stop-color="#e3f0fd"/><stop offset=".847" stop-color="#cce5fb"/><stop offset=".912" stop-color="#afd5f9"/><stop offset=".974" stop-color="#8cc3f6"/><stop offset="1" stop-color="#7bbaf5"/></linearGradient><linearGradient id="o" gradientUnits="userSpaceOnUse" x1="945.371" x2="1167.073" y1="1150.669" y2="1150.669"><stop offset="0" stop-color="#c0defa"/><stop offset=".035" stop-color="#cbe4fb"/><stop offset=".122" stop-color="#e2f0fd"/><stop offset=".216" stop-color="#f2f8fe"/><stop offset=".322" stop-color="#fcfdff"/><stop offset=".461" stop-color="#fff"/><stop offset="1" stop-color="#bbdbfa"/></linearGradient><linearGradient id="p" gradientUnits="userSpaceOnUse" x1="1001.726" x2="1028.802" y1="1197.076" y2="1197.076"><stop offset="0" stop-color="#fff"/><stop offset="1" stop-color="#cee6fb"/></linearGradient><linearGradient id="q" gradientUnits="userSpaceOnUse" x1="1078.924" x2="1106" y1="1196.593" y2="1196.593"><stop offset="0" stop-color="#fff"/><stop offset="1" stop-color="#d5eafc"/></linearGradient><linearGradient id="r" gradientUnits="userSpaceOnUse" x1="926.426" x2="928.762" y1="1311.421" y2="1382.221"><stop offset="0" stop-color="#8cb3ff"/><stop offset=".21" stop-color="#8ab0fc"/><stop offset=".381" stop-color="#82a6f2"/><stop offset=".537" stop-color="#7696e1"/><stop offset=".685" stop-color="#6580c9"/><stop offset=".827" stop-color="#4e62aa"/><stop offset=".963" stop-color="#333f84"/><stop offset="1" stop-color="#2b3479"/></linearGradient><linearGradient id="s"><stop offset="0" stop-color="#f18024"/><stop offset="1" stop-color="#ff743a"/></linearGradient><linearGradient id="t" gradientUnits="userSpaceOnUse" x1="902.219" x2="931.536" xlink:href="#s" y1="1324.445" y2="1324.445"/><linearGradient id="u" gradientUnits="userSpaceOnUse" x1="919.326" x2="949.076" xlink:href="#s" y1="1345.553" y2="1345.553"/><linearGradient id="v" gradientUnits="userSpaceOnUse" x1="1161.397" x2="1185.867" y1="1134.318" y2="1228.982"><stop offset="0" stop-color="#f3ab83"/><stop offset=".347" stop-color="#efa17b"/><stop offset=".936" stop-color="#e58665"/><stop offset="1" stop-color="#e48362"/></linearGradient><linearGradient id="w" gradientUnits="userSpaceOnUse" x1="585.123" x2="503.366" y1="946.56" y2="913.614"><stop offset="0" stop-color="#602602"/><stop offset=".796" stop-color="#431d17"/><stop offset="1" stop-color="#3b1b1d"/></linearGradient><linearGradient id="x" gradientUnits="userSpaceOnUse" x1="404.529" x2="325.97" y1="1061.443" y2="946.82"><stop offset="0" stop-color="#c57d4d"/><stop offset=".136" stop-color="#bc7042"/><stop offset=".462" stop-color="#aa572d"/><stop offset=".759" stop-color="#a04820"/><stop offset="1" stop-color="#9c431c"/></linearGradient><linearGradient id="y" gradientTransform="matrix(.9502 .00380187 .00380187 .9997 98.1123 -7.4944)" gradientUnits="userSpaceOnUse" x1="385.52" x2="213.69" y1="835.912" y2="913.215"><stop offset="0" stop-color="#c57d4d"/><stop offset=".286" stop-color="#b5673a"/><stop offset=".743" stop-color="#a04821"/><stop offset="1" stop-color="#983d17"/></linearGradient><linearGradient id="z" gradientUnits="userSpaceOnUse" x1="388.535" x2="549.841" y1="794.448" y2="742.932"><stop offset="0" stop-color="#3b1b1d"/><stop offset=".306" stop-color="#421d19"/><stop offset=".745" stop-color="#55230e"/><stop offset="1" stop-color="#632806"/></linearGradient><linearGradient id="A" gradientUnits="userSpaceOnUse" x1="352.753" x2="249.54" y1="889.529" y2="786.317"><stop offset="0" stop-color="#3b1b1d"/><stop offset=".469" stop-color="#502211"/><stop offset="1" stop-color="#6c2b01"/></linearGradient><linearGradient id="B" gradientTransform="matrix(-.9611 .2764 .2764 .9611 5077.2485 -904.962)" gradientUnits="userSpaceOnUse" x1="5061.916" x2="5002.031" xlink:href="#f" y1="459.026" y2="389.387"/><linearGradient id="C" gradientUnits="userSpaceOnUse" x1="497.603" x2="408.625" y1="930.302" y2="786.206"><stop offset="0" stop-color="#8ad4f0"/><stop offset="1" stop-color="#e7f6fb"/></linearGradient><linearGradient id="D"><stop offset="0" stop-color="#c57d4d"/><stop offset="1" stop-color="#9c431c"/></linearGradient><linearGradient id="E" gradientTransform="matrix(.9208 -.3899 .3899 .9208 -773.8985 1186.6864)" gradientUnits="userSpaceOnUse" x1="1436.38" x2="1461.023" xlink:href="#D" y1="357.99" y2="442.31"/><linearGradient id="F" gradientTransform="matrix(.9587 -.2845 .2845 .9587 -607.0344 828.1458)" gradientUnits="userSpaceOnUse" x1="1268.922" x2="1213.576" y1="553.381" y2="516.932"><stop offset="0" stop-color="#f17e23"/><stop offset=".112" stop-color="#f38b36"/><stop offset=".535" stop-color="#f9ba78"/><stop offset=".843" stop-color="#fdd7a2"/><stop offset="1" stop-color="#ffe2b2"/></linearGradient><linearGradient id="G" gradientTransform="matrix(.9587 -.2845 .2845 .9587 -607.0344 828.1458)" gradientUnits="userSpaceOnUse" x1="1203.068" x2="1274.845" y1="539.609" y2="539.239"><stop offset="0" stop-color="#fedeac"/><stop offset=".094" stop-color="#fcce96"/><stop offset=".292" stop-color="#f8b26d"/><stop offset=".486" stop-color="#f59b4d"/><stop offset=".672" stop-color="#f38b36"/><stop offset=".848" stop-color="#f18128"/><stop offset="1" stop-color="#f17e23"/></linearGradient><linearGradient id="H" gradientTransform="matrix(.9965 -.0839 .0839 .9965 -197.9011 214.8288)" gradientUnits="userSpaceOnUse" x1="888.253" x2="902.93" xlink:href="#D" y1="860.32" y2="874.903"/><linearGradient id="I" gradientTransform="matrix(1.0083 -.2512 .2231 .8955 -580.5555 896.8324)" gradientUnits="userSpaceOnUse" x1="1225.584" x2="1247.058" xlink:href="#D" y1="439.501" y2="457.587"/><linearGradient id="J" gradientTransform="matrix(.9226 -.3857 .3716 .8888 -731.3663 1258.4043)" gradientUnits="userSpaceOnUse" x1="1469.703" x2="1506.118" y1="328.85" y2="328.435"><stop offset="0" stop-color="#c57d4d"/><stop offset=".301" stop-color="#bd7244"/><stop offset=".829" stop-color="#a9552b"/><stop offset="1" stop-color="#a14a22"/></linearGradient><linearGradient id="K" gradientTransform="matrix(.988 .1545 -.1545 .988 412.4098 -381.4485)" gradientUnits="userSpaceOnUse" x1="533.238" x2="560.066" y1="1276.869" y2="1268.677"><stop offset="0" stop-color="#c57d4d"/><stop offset="1" stop-color="#a55027"/></linearGradient><linearGradient id="L" gradientUnits="userSpaceOnUse" x1="416.581" x2="400.267" y1="1342.916" y2="1054.274"><stop offset="0" stop-color="#ff821e"/><stop offset=".272" stop-color="#fe8525"/><stop offset=".667" stop-color="#fa8f38"/><stop offset="1" stop-color="#f5994e"/></linearGradient><linearGradient id="M" gradientUnits="userSpaceOnUse" x1="545.944" x2="605.443" y1="1061.944" y2="925.956"><stop offset="0" stop-color="#437ccf"/><stop offset=".229" stop-color="#4d84d5"/><stop offset=".621" stop-color="#699be4"/><stop offset="1" stop-color="#89b6f7"/></linearGradient><linearGradient id="N" gradientUnits="userSpaceOnUse" x1="595.31" x2="468.817" y1="1172.55" y2="1184.05"><stop offset="0" stop-color="#89b6f6"/><stop offset=".271" stop-color="#70a2ea"/><stop offset=".844" stop-color="#2f70cb"/><stop offset="1" stop-color="#1c61c2"/></linearGradient><linearGradient id="O" gradientUnits="userSpaceOnUse" x1="502.641" x2="417.619" y1="1123.663" y2="1116.98"><stop offset="0" stop-color="#a6c8ff"/><stop offset="1" stop-color="#1c61c2"/></linearGradient><linearGradient id="P" gradientUnits="userSpaceOnUse" x1="721.805" x2="721.805" y1="2506.583" y2="982.773"><stop offset="0" stop-color="#d0e6fb"/><stop offset=".279" stop-color="#d5e8fb"/><stop offset=".592" stop-color="#e2f0fd"/><stop offset=".92" stop-color="#f8fbfe"/><stop offset="1" stop-color="#fff"/></linearGradient><linearGradient id="Q" gradientUnits="userSpaceOnUse" x1="721.805" x2="721.805" y1="1260.488" y2="1412.434"><stop offset="0" stop-color="#bfdefa"/><stop offset="1" stop-color="#546ab2"/></linearGradient><linearGradient id="R" gradientUnits="userSpaceOnUse" x1="605.788" x2="528.939" xlink:href="#D" y1="1297.404" y2="1339.322"/><linearGradient id="S" gradientUnits="userSpaceOnUse" x1="247.738" x2="143" y1="1193.708" y2="1161.097"><stop offset="0" stop-color="#8bade7"/><stop offset=".2" stop-color="#7aa2e1"/><stop offset=".595" stop-color="#4f84d3"/><stop offset="1" stop-color="#1c61c2"/></linearGradient><linearGradient id="T" gradientUnits="userSpaceOnUse" x1="364.714" x2="236.659" y1="1294.478" y2="1311.93"><stop offset="0" stop-color="#1c61c2"/><stop offset=".158" stop-color="#2668c5" stop-opacity=".937"/><stop offset=".423" stop-color="#3f79ce" stop-opacity=".831"/><stop offset=".758" stop-color="#6996dc" stop-opacity=".697"/><stop offset="1" stop-color="#8bade7" stop-opacity=".6"/></linearGradient><linearGradient id="U" gradientUnits="userSpaceOnUse" x1="275.205" x2="452.073" y1="1222.026" y2="1318.632"><stop offset="0" stop-color="#8bade7"/><stop offset="1" stop-color="#4983d7"/></linearGradient><linearGradient id="V" gradientUnits="userSpaceOnUse" x1="330.325" x2="389.364" y1="1136.716" y2="1033.056"><stop offset="0" stop-color="#a6c8ff"/><stop offset=".133" stop-color="#9dc1fb"/><stop offset=".348" stop-color="#85b0f1"/><stop offset=".618" stop-color="#5f93df"/><stop offset=".929" stop-color="#296bc8"/><stop offset="1" stop-color="#1c61c2"/></linearGradient><linearGradient id="W" gradientUnits="userSpaceOnUse" x1="1512.11" x2="1512.11" y1="1555.078" y2="5921.255"><stop offset="0" stop-color="#fff"/><stop offset=".233" stop-color="#f6faff"/><stop offset=".609" stop-color="#dfebff"/><stop offset="1" stop-color="#bfd8ff"/></linearGradient><linearGradient id="X" gradientUnits="userSpaceOnUse" x1="1512.201" x2="1512.201" y1="3639.361" y2="985.248"><stop offset="0" stop-color="#4497ff"/><stop offset=".172" stop-color="#4799ff"/><stop offset=".32" stop-color="#529fff"/><stop offset=".459" stop-color="#64a9ff"/><stop offset=".592" stop-color="#7cb6ff"/><stop offset=".721" stop-color="#9dc8ff"/><stop offset=".847" stop-color="#c4deff"/><stop offset=".968" stop-color="#f2f8ff"/><stop offset="1" stop-color="#fff"/></linearGradient><path d="m1610.25 1391.75c153.08-188.69 154.75-449.46 31.55-647.1-52.41-84.08-134.99-164.75-201.07-258.22-51.72-73.16-88.04-157.55-145.11-225.75-88.19-105.39-253.68-147.24-383.88-140.5-140.54 7.27-231.44 82.22-362.72 137.76-103.85 43.93-344.45 38.09-510.75 288.43-48.07 72.37-86.65 207.3-59.16 302.78 24.9 86.49 53.76 166.08 90.6 247.28 42.26 93.16 44.87 206.92 21.65 308.68h7.1z" fill="#fff" opacity=".4"/><path d="m1590.06 1371.7c148.21-182.68 149.82-435.15 30.55-626.49-50.74-81.4-130.69-159.5-194.66-250-50.07-70.83-85.24-152.53-140.49-218.56-85.38-102.03-245.6-142.55-371.66-136.02-136.06 7.05-224.07 79.61-351.17 133.38-100.54 42.53-333.48 36.87-494.48 279.25-46.54 70.06-83.89 200.69-57.28 293.13 24.11 83.74 52.05 160.79 87.71 239.4 40.92 90.19 43.44 200.33 20.96 298.85h6.88z" fill="url(#a)"/><path d="m64.94 1416.92v-22.63c0-2.49 2.01-4.5 4.5-4.5h1572.79c2.49 0 4.5 2.01 4.5 4.5v22.63c0 2.49-2.01 4.5-4.5 4.5h-1572.79c-2.49 0-4.5-2.01-4.5-4.5z" fill="#dfe2e7"/><path d="m966.62 1377.59c10-86.21 24.7-171.88 44.01-256.5 17.35-33.46 37.54-82.66 93.91-95.52 20.38-4.65 29.48 5.58 49.38-.81l97.95-22.26c63.22 10.91 99.18 26.43 122.62 52.77 38.41 43.18 55.14 178.85 52.49 223.56-1.45 24.51-29.73 37.99-51.37 47.28 2.4 18.42 7.06 35.76 6.71 54.33l-335.22 1c-2.9-74.66.37-110.62 2.73-188.11-4.29 62.27-5.35 124.75-3.19 187.13z" fill="url(#b)"/><path d="m1154.39 1030.12c-15.56 6.64-25.71 22.59-29.15 39.15s-1.09 33.78 2.44 50.32c7.63 35.71 20.79 70.23 38.85 101.96 19.84-58.38 71.4-100.67 96.87-156.83 5.39-11.87 9.62-24.78 8.27-37.75s-9.49-25.92-22.01-29.57c-11.78-3.43-24.16 1.76-35.33 6.84-21.3 9.7-42.9 18.61-59.94 25.88z" fill="#323778"/><path d="m1233.82 954.37c-2.16 33.05 1.82 54.98 19.51 74.36-21.59 36.04-58.35 62.05-102.07 57.45 8.52-30.38 6.08-63.66-6.77-92.51z" fill="url(#c)"/><path d="m1151.36 1013.67c13.74 1.04 27.52-2.85 39.75-9.15 12.22-6.3 30.06-18.42 40.45-27.38-3.07 16.39-9.81 25.47-21.46 37.5-11.65 12.04-38.84 21.69-54.25 24.19-.44-8.68-2.02-14.23-4.49-25.16z" fill="#331514"/><path d="m1042.94 845.91c.39 29.78 1.92 64.29 11.31 92.67s22.87 48.94 50.65 63.16c28.86 14.78 75.04 13.5 104.27-1.1s52.8-50.57 57.68-77.12c25.74-3.38 32.37-50.58 20.74-60.31-5.23-4.38-13.34-4.84-19.86-2.3-6.52 2.55-11.58 7.66-19.09 12.1 2.95-34.23-14.45-69.22-44.23-88.94s-70.86-23.48-104.43-9.54c-33.57 13.95-57.39 45.05-57.04 71.38z" fill="url(#d)"/><path d="m1122.24 970.8c7.21 1.3 16.17.23 22.05-4.14s8.6-11.98 9.44-19.26" fill="none" stroke="#331514" stroke-miterlimit="10" stroke-width="1.085"/><path d="m1270.39 869.05c2.35-2.7 7.92-1.7 11.47 1.59 7.3 6.77 2.86 28.64-8.91 34.77" style="fill:none;stroke:#331514;stroke-width:1.0853;stroke-linecap:round;stroke-linejoin:round;stroke-miterlimit:10"/><path d="m1291.52 872.54s28.66-33.81 13.77-108.01c-5.05-25.15-26.21-49.09-49.52-59.78-10.12-4.64-21.44-6.92-30.03.17 3.05-8.25 9.77-12.81 18.67-15.16-7.87-4.45-18.92-2.02-24.2 5.33-.49-8.83 4.4-17.75 12.1-22.08-11.42-1.71-23.56 5.3-27.77 16.05-4.59-15.2-17.8-27.48-33.3-30.95 9.06 10.1 14.05 23.75 13.66 37.31-25.89-20.02-65.92-27.61-95.09-12.78 26.28-10.55 59.88-4.05 84.19 10.48-32.89-7.66-54.88-9.09-86.67 2.33-31.78 11.42-66.31 31.4-80.43 62.07s-8.94 61.02 13.39 95.69c1.2-17.92 4.49-28.86 17.74-39.59-8.64 12.68-11.4 24.89-9.76 40.15 29.32-5.08 55.98-11.44 82.46-25s44.04-36.24 48.63-58.85c1.49 15.74 10.78 30.56 24.31 38.75 9.85 5.96 21.58 8.52 30.9 15.28 11.24 8.15 17.66 21.63 20.14 35.28 2.48 13.66 1.46 18.39-.43 31.64 6.47 1.75 13.45 1.6 19.84-.42 0-9.14 2.2-21.81 8.65-25.86 20.38-12.81 28.75 7.95 28.75 7.95z" fill="url(#e)"/><path d="m1284.29 837.19c-24.32-9.8-66.62-11.59-84.45-15.09-1.29-.25-3.35-.07-4.57.44-212.84 89.34-152.61 66.39-149.02 111.43.69 8.67 5.65 15.87 16.38 14.29 7.77-1.14 14.33.99 17.3-6.28 3.19-7.8 3.46-18.75 12.9-22.07 2.31-.81 4.8-.89 7.22-.44 8.29 1.52 14 7.42 20.6 11.86 18.89 12.69 42.37 14.53 62.62 4.15 17.27-8.85 32.98-22.5 41.73-43.79 4.64-11.29 29.64-11.6 29.99-11.32 1.82-9.84 6.41-17.12 15.46-19.21 3.02-.7 6.26-.9 9.19.12 10.93 3.81 13.4 15.15 13.49 15.08 12.67-10.34 8.86-32.04-8.84-39.17z" fill="url(#g)"/><path d="m1188.12 922.95c-17.55 14.48-42.49 21.39-67.48 8.39-7.08-3.69-12.35-10.38-20.69-11.88-2.37-.42-4.85-.34-7.12.46-9.44 3.33-9.71 14.28-12.9 22.07-8.56 20.92-37.39 10.16-44-.41-13.34-21.32-18.29-44-15.63-69.71.22-2.11 1.55-3.66 3.45-4.61 50.44-25.17 129.62-49.32 172.59-45.47 1.35.12 3.52-1.15 4.02.11 13.37 33.78 11.7 81.29-12.24 101.05z" fill="url(#h)"/><path d="m1144.24 850.43c3.03 2.14.91 4.52-1.99 4.31-3.74-.27-7.56.03-11.26.64-1.44.24-2.91.52-4.36.31-1.45-.22-2.9-1.05-3.35-2.39-.46-1.34.22-2.86 1.32-3.8s2.56-1.38 4-1.66c5.24-1.07 11.09-.62 15.64 2.59z" fill="#dd661d"/><path d="m1053.08 861.18c5.59-2.01 9.01 3.71 5.26 6.49-1.61 1.2-5.96 1.38-8.75 3.05-1.52.91-2.77 1.74-3.82 2.63-1.14.97-2.88-.07-2.57-1.54 1.3-6.14 5.48-9.04 9.88-10.63z" fill="#dd661d"/><ellipse cx="1129.84" cy="890.9" fill="#331514" rx="7.7" ry="12.48" transform="matrix(.9775 -.2111 .2111 .9775 -162.6367 258.6477)"/><ellipse cx="1060.62" cy="905.85" fill="#331514" rx="7.7" ry="12.48" transform="matrix(.9775 -.2111 .2111 .9775 -167.3548 244.3682)"/><path d="m1097.81 923.19c1.48 12.49-2.77 22.42-2.77 22.42s11.17 5.41 18.06-4.35" style="fill:none;stroke:#331514;stroke-width:1.0853;stroke-linecap:round;stroke-linejoin:round;stroke-miterlimit:10"/><path d="m1156.15 1044.38c-11.94 4.41-13.18 18.2 4.39 19.84 6.44.6 20.11-.83 26.01-3.48 27.28-12.25 50.46-35.67 54.73-64.43 39.36 0 2.65 48.15-5.37 69.66-20.58 55.17-44.08 109.25-70.36 161.95 1.58-26.37-17.62-48.8-27.76-73.2-9.16-22.03-10.98-46.32-12.69-70.12-.86-12.02-1.63-24.63 3.4-35.59s14.62-23.17 25.88-18.89c1.22 1.67 1.78 12.04 1.77 14.26z" fill="url(#i)"/><path d="m1124.48 1025.57c-22.6 2.35-55.96 31.2-64.19 52.38s-6.23 42.39-9.76 64.84c-11.96 76.05-25.74 146.14-15.61 237.26l117.92 1.4c6.36-55.85 14.03-112.79 5.11-168.29-10.06-62.46-22.7-128.67-33.47-187.59z" fill="url(#j)"/><path d="m1150.13 1023c-23.27-1.05-48.95 9.54-61.28 28.74 7.12-.18 9.51-.78 15.71 2.73-11.68 4.51-15.51 13.8-20.5 23.93 25 47.35 43.55 118.51 72.33 173 3.86-7.84 9.83-43.9 9.42-48.4-18.36-48.13-37.76-94.15-39.86-145.62 6.32-9.13 14.42-17.62 20.18-20.66-.37-4.76 6.16-9.59 4-13.72z" fill="#2b3479" opacity=".988"/><path d="m1151.81 1014.65c-26.78 5-48.48 15.31-60.81 34.5 7.12-.18 14.28 1.61 20.48 5.12-11.68 4.51-20.28 12.01-25.27 22.14 23.28 49.37 45.9 103.09 68.84 156.05 3.86-7.84 6.87-16.09 8.96-24.57-18.36-48.13-29.04-99.24-31.13-150.71 6.32-9.13 17.09-17.07 22.85-20.12 0 0-2.07-16.23-3.92-22.41z" fill="url(#k)"/><path d="m1290.86 1301.65c-21.78-12.53-42.4-34.22-42.4-34.22-2.42-25.12 18.32-77.85 30.55-86.97 32.04 11.05 63.99 27.41 90.55 46.43-4.65 18.14-7.15 36.82-7.42 55.55l62.42 6.75c-3.93 15.97-36.88 31.52-49.27 37.73-19.26 6.63-47.35-3.94-84.43-25.27z" fill="#b4c8f4"/><path d="m1312.64 1114.09c-13.25 32.76-6.32 75.06 6.91 103.55" style="fill:none;stroke:#2b3479;stroke-width:2.1706;stroke-linecap:round;stroke-linejoin:round;stroke-miterlimit:10"/><path d="m1359.14 1322.51c-31.65-.72-83.64-34.95-110.58-55.31l21.29-97.2c75.17 25.51 159.79 64.12 157.14 108.83-1.45 24.51-28.99 33.57-51.37 40.91-3.97 1.31-12.3 2.86-16.48 2.77z" fill="url(#l)"/><path d="m1248.56 1267.2c11.41-11.48 20.1-25.65 25.16-41.02 6.07-18.4 6.53-39.84-5.35-56.1-12.21 12.22-18.1 33.91-20.39 51.03-2.3 17.13-1.34 29.93.58 46.09z" fill="#2b3479"/><path d="m1157.14 1242.43c24.01-78.79 74.97-167.41 96.18-237.02 15.9-2.27 35.8 2.81 52.19 10.15l19.85 19.33-33.93 3.34s24.57 24.98 23.96 24.98c-76.51 64.02-133.73 149.57-162.56 317.24 0 0 .94-94.66 4.31-138.02z" fill="#2b3479"/><path d="m1152.83 1380.45c.05-49.63.11-99.25.74-149.7 20.67-112.14 93.84-159.48 87.72-234.44 15.68-5.28 43.15 4.24 59.53 11.58l24.54 26.99-36.49.73s27.13 27.59 26.51 27.59c-87.63 55.71-132.65 162.62-156.19 259.56z" fill="url(#m)"/><path d="m954.07 1374.08v-207.8h193.4v207.8c0 1.66-1.34 3-3 3h-187.4c-1.65 0-3-1.34-3-3z" style="stroke:#2b3479;stroke-width:1.628;stroke-linecap:round;stroke-linejoin:bevel;stroke-miterlimit:10;fill:url(#n)"/><path d="m945.37 1163.27v-25.21c0-1.66 1.34-3 3-3h204.8c1.66 0 3 1.34 3 3v25.21c0 1.66-1.34 3-3 3h-204.8c-1.66 0-3-1.34-3-3z" style="stroke:#2b3479;stroke-width:1.628;stroke-linecap:round;stroke-linejoin:bevel;stroke-miterlimit:10;fill:url(#o)"/><path d="m1138.52 1273.65v81.19c0 7.16-5.8 12.96-12.96 12.96h-149.05c-7.16 0-12.96-5.8-12.96-12.96 0 0 0-112.82-.52-132.62-.05-1.96 1.11-3.72 2.91-4.49 9.83-4.24 21.85-2.13 31.43 3.03 8.51 4.58 15.63 11.22 22.69 17.87 7.35 6.91 15.77 12.66 25.08 16.55 20.42 8.54 34.71 4.93 53 2.29 11.29-1.63 24.39-.39 34.02 5 4 2.24 6.36 6.59 6.36 11.18z" fill="#2b3479"/><path d="m1001.73 1286.54v-181.93h27.08v181.93c0 1.66-1.34 3-3 3h-21.08c-1.66 0-3-1.34-3-3z" style="stroke:#7599e9;stroke-width:1.0853;stroke-linecap:round;stroke-linejoin:bevel;stroke-miterlimit:10;fill:url(#p)"/><path d="m1004.73 1284.39v-103.93h21.07v103.93c0 1.35-1.09 2.44-2.44 2.44h-16.19c-1.35 0-2.44-1.1-2.44-2.44z" fill="#2b3479"/><path d="m996.41 1093.59h37.71v14.5h-37.71z" style="fill:#e2761d;stroke:#2b3479;stroke-width:.7597;stroke-linecap:round;stroke-linejoin:round;stroke-miterlimit:10"/><path d="m1015.26 1275.83v-190.93l32.26-21.55" style="fill:none;stroke:#f18024;stroke-width:2.7133;stroke-linecap:round;stroke-linejoin:round;stroke-miterlimit:10"/><path d="m996.41 1093.59h37.71v14.5h-37.71z" fill="#2b3479"/><path d="m1078.92 1286.06v-181.93h27.08v181.93c0 1.66-1.34 3-3 3h-21.08c-1.65 0-3-1.34-3-3z" style="stroke:#7599e9;stroke-width:1.0853;stroke-linecap:round;stroke-linejoin:bevel;stroke-miterlimit:10;fill:url(#q)"/><path d="m1081.93 1283.92v-67.18h21.07v67.18c0 1.35-1.09 2.44-2.44 2.44h-16.19c-1.35 0-2.44-1.1-2.44-2.44z" fill="#2b3479"/><path d="m1073.61 1093.11h37.71v14.5h-37.71z" style="fill:#e2761d;stroke:#2b3479;stroke-width:.7597;stroke-linecap:round;stroke-linejoin:round;stroke-miterlimit:10"/><path d="m1092.46 1275.34v-190.92l32.26-21.56" style="fill:none;stroke:#ff6d31;stroke-width:2.7133;stroke-linecap:round;stroke-linejoin:round;stroke-miterlimit:10"/><path d="m1073.61 1093.11h37.71v14.5h-37.71z" fill="#2b3479"/><g stroke="#2b3479" stroke-linecap="round" stroke-miterlimit="10"><path d="m945.37 1163.27v-25.21c0-1.66 1.34-3 3-3h204.8c1.66 0 3 1.34 3 3v25.21c0 1.66-1.34 3-3 3h-204.8c-1.66 0-3-1.34-3-3z" fill="none" stroke-linejoin="bevel" stroke-width="1.0853"/><g fill="#fff" stroke-linejoin="round" stroke-width=".5427"><circle cx="1047.22" cy="1289.54" r="7.74"/><circle cx="1060.53" cy="1317.06" r="3.87"/><circle cx="1078.57" cy="1299.02" r="5.85"/><circle cx="1067.73" cy="1272.87" r="2.72"/></g></g><circle cx="1047.22" cy="1236.5" fill="#7599e8" r="2.72"/><circle cx="1065.82" cy="1242.5" fill="#bcdcfa" r="3.99"/><circle cx="1061.34" cy="1215.46" fill="#bfdefa" r="5.89"/><circle cx="1054.83" cy="1251.63" fill="#bfdefa" r="1.99"/><circle cx="1068.98" cy="1225.4" fill="#7599e8" r="1.99"/><circle cx="1071.26" cy="1257.35" fill="#7599e8" r="1"/><circle cx="1071.26" cy="1282.23" fill="#7599e8" r="1"/><circle cx="1053.44" cy="1264.41" fill="#7599e8" r="1"/><circle cx="1054.55" cy="1298.95" fill="#bfdefa" r="2.11"/><circle cx="1087.58" cy="1296.84" fill="#7599e8" r=".71"/><circle cx="1065.01" cy="1321.64" fill="#7599e8" r=".71"/><path d="m1011.55 1057.69c-13.28-16.44-33.94-26.69-54.92-26.62s-41.81 10.69-53.84 28.09c-12.35 17.85-14.96 40.99-12.72 62.66s8.86 42.6 13.45 63.88c4.59 21.29 4.1 47 4.1 64.68" fill="none" stroke="#f18024" stroke-miterlimit="10" stroke-width="2.713"/><path d="m1092.92 1055.29c-7.4-9.29-22.72-19.16-37.46-21.73-29.91-5.22-56.1-3.55-79.85 11.49-23.75 15.03-39.03 38.31-44.49 66.11-9 45.82 12.08 92.51 11.58 139.22" fill="none" stroke="#ff6d31" stroke-miterlimit="10" stroke-width="2.713"/><path d="m1007.04 1057.96 6.56-4.38c.63-.42 1.49-.25 1.91.38l13.52 20.22c.42.63.25 1.49-.38 1.91l-6.56 4.38c-.63.42-1.49.25-1.91-.38l-13.52-20.22c-.42-.63-.25-1.48.38-1.91z" fill="#7599e9"/><path d="m1088.27 1055.06 6.56-4.38c.63-.42 1.49-.25 1.91.38l13.52 20.22c.42.63.25 1.49-.38 1.91l-6.56 4.38c-.63.42-1.49.25-1.91-.38l-13.52-20.22c-.42-.63-.25-1.48.38-1.91z" fill="#7599e9"/><path d="m873.77 1376.01v-96.67c0-7.97 6.46-14.44 14.44-14.44h77.5c7.97 0 14.44 6.46 14.44 14.44v96.67c0 1.66-1.34 3-3 3h-100.38c-1.65 0-3-1.34-3-3z" fill="url(#r)"/><path d="m873.77 1296.74v-20.23c0-6.41 5.2-11.6 11.6-11.6h83.16c6.41 0 11.6 5.2 11.6 11.6v20.23z" fill="#80c508"/><path d="m896.02 1248.47h25.14v6.77h-25.14z" fill="#2b3479"/><path d="m902.3 1255.24h12.57v9.67h-12.57z" fill="#2b3479"/><path d="m930.14 1248.47h25.14v6.77h-25.14z" fill="#2b3479"/><path d="m936.42 1255.24h12.57v9.67h-12.57z" fill="#2b3479"/><path d="m933.93 1282.5 17.56-.17" style="fill:none;stroke:#2b3479;stroke-width:1.0853;stroke-linecap:round;stroke-linejoin:round;stroke-miterlimit:10"/><path d="m942.62 1273.63.17 17.56" style="fill:none;stroke:#2b3479;stroke-width:1.0853;stroke-linecap:round;stroke-linejoin:round;stroke-miterlimit:10"/><path d="m899.81 1282.5 17.56-.17" style="fill:none;stroke:#2b3479;stroke-width:1.0853;stroke-linecap:round;stroke-linejoin:round;stroke-miterlimit:10"/><path d="m902.22 1309.71 21.25-5.15-2.19 14.47 10.26-.55-14.85 25.85.44-16.25-6.61 2.12z" fill="url(#t)"/><path d="m933.79 1324.66-12.14 21.11 12.88 4.63-15.2 16.05 28.81-16.09-10.35-4.55 11.29-7.59z" fill="url(#u)"/><path d="m1271.61 1191.18c-.47-12.52-5.23-14.78-7.65-16.4-3.82-2.56-9.21-5.47-14.91-8.42-.03-.03-.06-.07-.09-.08-7.17-3.84-14.58-7.76-22.14-11.62-.01 0-.02-.01-.03-.01-21.86-11.17-45.03-21.87-67.5-28.81-12.56-3.88-31.96-7.95-42.38.06-12.2 9.38-40.76 37.57-41.96 42.29-1.75 6.85 3.01 6.8 5.92 6.58 2.51-.19 4.92-1.05 6.99-2.49l32.94-23.02c-11.37 10.86-22.76 21.58-30.98 34.98-1.17 1.91-2.03 5.61-.93 7.56.92 1.64 3.96 2.32 5.78 1.84s5.27-2.53 6.71-3.74c11.86-9.92 22.81-23.91 35.04-28.66-7.74 7.65-14.46 15.55-20.52 24.48-.29.43-.56.86-.79 1.32-2.31 4.51-4.02 9.17-5.07 14-.3 1.38-.53 4.38.15 5.62.98 1.81 3.56 2.21 5.46 1.41s3.27-2.47 4.55-4.09c4.59-5.8 9.03-11.76 14.41-16.83s14.81-12.4 19.87-10.78c-9.64 8.67-18.22 19.39-23.47 31.25-1.39 3.13-2.33 7.42.4 9.48 2.45 1.86 5.97.39 8.51-1.35 3.79-2.61 7.19-5.78 10.06-9.38 2.87-3.61 8.86-8.74 13.3-9.97 6.6-1.83 12.18 1.81 18.9 3.07 10.72 2 18.77.02 26.54 2.07 1.74.46 3.53 1.58 5.84 3.45 3.79 3.92 29.44 31.64 42.65 42.57 10.56-15.36 15.17-35.96 14.4-56.38z" fill="url(#v)"/><g fill="#fff"><path d="m100.76 825.91c1.26 5.98 1.53 12.01 1.55 18.07-.06 6.06-.39 12.09-1.7 18.06-1.26-5.98-1.54-12.01-1.55-18.07.06-6.06.39-12.09 1.7-18.06z"/><path d="m118.75 844.05c-5.98 1.26-12.01 1.53-18.07 1.55-6.06-.06-12.09-.39-18.06-1.7 5.98-1.26 12.01-1.54 18.07-1.55 6.06.07 12.09.4 18.06 1.7z"/><path d="m59.76 895.78c1.26 5.98 1.53 12.01 1.55 18.07-.06 6.06-.39 12.09-1.7 18.06-1.26-5.98-1.54-12.01-1.55-18.07.07-6.06.4-12.08 1.7-18.06z"/><path d="m77.75 913.92c-5.98 1.26-12.01 1.53-18.07 1.55-6.06-.06-12.09-.39-18.06-1.7 5.98-1.26 12.01-1.54 18.07-1.55 6.07.07 12.09.4 18.06 1.7z"/><path d="m626.8 796.48c1.26 5.98 1.53 12.01 1.55 18.07-.06 6.06-.39 12.09-1.7 18.06-1.26-5.98-1.54-12.01-1.55-18.07.07-6.06.4-12.09 1.7-18.06z"/><path d="m644.79 814.62c-5.98 1.26-12.01 1.53-18.07 1.55-6.06-.06-12.09-.39-18.06-1.7 5.98-1.26 12.01-1.54 18.07-1.55 6.07.07 12.09.4 18.06 1.7z"/><path d="m766.72 859.82c2.25 5.77 2.29 12.28.07 18.07-2.26-5.77-2.27-12.28-.07-18.07z"/><path d="m757.72 868.89c5.77-2.25 12.28-2.29 18.07-.07-5.77 2.26-12.28 2.27-18.07.07z"/><path d="m759.92 725.62c2.26 7.42 2.31 15.52.09 22.96-2.27-7.42-2.29-15.53-.09-22.96z"/><path d="m748.49 737.14c7.42-2.26 15.52-2.31 22.96-.09-7.42 2.28-15.52 2.29-22.96.09z"/><path d="m752.34 1152.03c2.26 7.42 2.31 15.52.09 22.96-2.27-7.42-2.29-15.53-.09-22.96z"/><path d="m740.91 1163.55c7.42-2.26 15.52-2.31 22.96-.09-7.42 2.28-15.52 2.29-22.96.09z"/><path d="m924.34 831.69c1.25 8.12 1.51 16.26 1.53 24.44-.08 8.18-.4 16.32-1.73 24.43-1.26-8.12-1.52-16.26-1.53-24.44.09-8.18.42-16.33 1.73-24.43z"/><path d="m948.68 856.22c-8.12 1.25-16.26 1.51-24.44 1.53-8.18-.08-16.32-.4-24.43-1.73 8.12-1.26 16.26-1.52 24.44-1.53 8.18.09 16.32.41 24.43 1.73z"/><path d="m1383.13 868.85c1.26 5.98 1.53 12.01 1.55 18.07-.06 6.06-.39 12.09-1.7 18.06-1.26-5.98-1.54-12.01-1.55-18.07.07-6.06.39-12.08 1.7-18.06z"/><path d="m1401.12 886.99c-5.98 1.26-12.01 1.53-18.07 1.55-6.06-.06-12.09-.39-18.06-1.7 5.98-1.26 12.01-1.54 18.07-1.55 6.07.07 12.09.4 18.06 1.7z"/><path d="m1450.92 1021.92c1.26 5.98 1.53 12.01 1.55 18.07-.06 6.06-.39 12.09-1.7 18.06-1.26-5.98-1.54-12.01-1.55-18.07.07-6.06.4-12.09 1.7-18.06z"/><path d="m1468.92 1040.06c-5.98 1.26-12.01 1.53-18.07 1.55-6.06-.06-12.09-.39-18.06-1.7 5.98-1.26 12.01-1.54 18.07-1.55 6.06.07 12.08.39 18.06 1.7z"/><path d="m1362.65 909.79c1.26 5.17 1.54 10.4 1.56 15.67-.06 5.27-.38 10.5-1.69 15.66-1.27-5.17-1.55-10.4-1.56-15.67.06-5.27.39-10.5 1.69-15.66z"/><path d="m1378.25 925.52c-5.17 1.26-10.4 1.54-15.67 1.56-5.27-.06-10.5-.38-15.66-1.69 5.17-1.27 10.4-1.55 15.67-1.56 5.28.06 10.5.39 15.66 1.69z"/><path d="m1128.89 302.31c1.31 5.97 1.63 12 1.7 18.06-.01 6.06-.29 12.09-1.55 18.07-1.31-5.97-1.64-12-1.7-18.06.01-6.06.29-12.09 1.55-18.07z"/><path d="m1110.89 320.45c5.97-1.31 12-1.63 18.06-1.7 6.06.01 12.09.29 18.07 1.55-5.97 1.31-12 1.64-18.06 1.7-6.06-.02-12.08-.29-18.07-1.55z"/><path d="m1149.36 343.24c1.3 5.16 1.63 10.39 1.69 15.66-.01 5.27-.3 10.5-1.56 15.67-1.31-5.16-1.63-10.39-1.69-15.66.02-5.27.3-10.49 1.56-15.67z"/><path d="m1133.76 358.97c5.16-1.3 10.39-1.63 15.66-1.69 5.27.01 10.5.3 15.67 1.56-5.16 1.31-10.39 1.63-15.66 1.69-5.27-.01-10.49-.3-15.67-1.56z"/><path d="m907.16 880.55c2.2 7.91 2.18 16.54-.1 24.43-2.21-7.9-2.16-16.53.1-24.43z"/><path d="m919.33 892.82c-7.91 2.2-16.54 2.18-24.43-.1 7.91-2.21 16.53-2.16 24.43.1z"/><path d="m709.12 1075.19c1.26 5.98 1.53 12.01 1.55 18.07-.06 6.06-.39 12.09-1.7 18.06-1.26-5.98-1.54-12.01-1.55-18.07.06-6.06.39-12.09 1.7-18.06z"/><path d="m727.11 1093.33c-5.98 1.26-12.01 1.53-18.07 1.55-6.06-.06-12.09-.39-18.06-1.7 5.98-1.26 12.01-1.54 18.07-1.55 6.06.07 12.09.39 18.06 1.7z"/><path d="m696.41 1111.32c2.2 5.79 2.19 12.3-.07 18.07-2.22-5.79-2.18-12.3.07-18.07z"/><path d="m705.41 1120.39c-5.79 2.2-12.3 2.19-18.07-.07 5.79-2.22 12.3-2.18 18.07.07z"/></g><path d="m1086.37 460.15h236.62v150.72h-236.62z" style="fill:none;stroke:#fff;stroke-width:1.628;stroke-linecap:round;stroke-linejoin:round;stroke-miterlimit:10"/><path d="m1086.37 460.15h236.62v150.72h-236.62z" style="fill:none;stroke:#7599e9;stroke-width:1.628;stroke-linecap:round;stroke-linejoin:round;stroke-miterlimit:10"/><path d="m1106.09 472.71h197.18v125.6h-197.18z" style="fill:none;stroke:#fff;stroke-width:1.628;stroke-linecap:round;stroke-linejoin:round;stroke-miterlimit:10"/><path d="m1116.06 533.1h68.07v58.34h-68.07z" fill="none" stroke="#7599e9" stroke-miterlimit="10" stroke-width="1.628"/><path d="m1145.98 580.47v-55.84c0-.69.56-1.25 1.25-1.25h5.6c.69 0 1.25.56 1.25 1.25v55.84c0 .69-.56 1.25-1.25 1.25h-5.6c-.69 0-1.25-.56-1.25-1.25z" fill="#fff"/><path d="m1143.95 526.8v-2.8c0-.34.28-.62.62-.62h10.91c.34 0 .62.28.62.62v2.79c0 .34-.28.62-.62.62h-10.91c-.34.01-.62-.27-.62-.61z" fill="#7599e9"/><path d="m1127.68 580.47v-55.84c0-.69.56-1.25 1.25-1.25h5.6c.69 0 1.25.56 1.25 1.25v55.84c0 .69-.56 1.25-1.25 1.25h-5.6c-.69 0-1.25-.56-1.25-1.25z" fill="#fff"/><path d="m1125.66 526.8v-2.8c0-.34.28-.62.62-.62h10.91c.34 0 .62.28.62.62v2.79c0 .34-.28.62-.62.62h-10.91c-.34.01-.62-.27-.62-.61z" fill="#7599e9"/><path d="m1164.27 580.47v-55.84c0-.69.56-1.25 1.25-1.25h5.6c.69 0 1.25.56 1.25 1.25v55.84c0 .69-.56 1.25-1.25 1.25h-5.6c-.69 0-1.25-.56-1.25-1.25z" fill="#fff"/><path d="m1162.24 526.8v-2.8c0-.34.28-.62.62-.62h10.91c.34 0 .62.28.62.62v2.79c0 .34-.28.62-.62.62h-10.91c-.34.01-.62-.27-.62-.61z" fill="#7599e9"/><path d="m1244.08 588.34-19.27-41.92v-27.41h-7.29v27.99l-19 41.34c-.15.32.09.68.43.68h44.7c.34 0 .57-.36.43-.68z" style="fill:none;stroke:#fff;stroke-width:1.628;stroke-linecap:round;stroke-linejoin:round;stroke-miterlimit:10"/><path d="m1212.38 520.41v-2.79c0-.34.28-.62.62-.62h16.58c.34 0 .62.28.62.62v2.79c0 .34-.28.62-.62.62h-16.58c-.34 0-.62-.28-.62-.62z" fill="#7599e9"/><path d="m1295.6 588.36-19.9-50.26v-32.76h-7.51v33.45l-19.63 49.57c-.12.31.11.65.44.65h46.14c.35.01.58-.33.46-.65z" style="fill:none;stroke:#fff;stroke-width:1.628;stroke-linecap:round;stroke-linejoin:round;stroke-miterlimit:10"/><path d="m1261.08 507.25v-3.81c0-.32.26-.59.59-.59h20.84c.32 0 .59.26.59.59v3.81c0 .32-.26.59-.59.59h-20.84c-.33 0-.59-.27-.59-.59z" fill="#7599e9"/><g fill="none" stroke-miterlimit="10"><g stroke-linecap="round" stroke-linejoin="round"><g stroke-width="2.713"><g stroke="#fff"><path d="m634.8 627.82h-38.04l-13.29 26.34 13.31 26.62h38.04l11.74-26.48z"/><path d="m646.02 653.09 8.86 15.32"/><path d="m583.53 653.82-10.5 6.93"/><path d="m532.07 627.82h-38.05l-11.76 26.48 11.74 26.48h38.05l13.31-26.62z"/><path d="m482.8 653.09-8.86 15.32"/><path d="m545.3 653.82 10.49 6.93"/></g><path d="m543.03 707.4 9.55-9.35" stroke="#7599e9"/><path d="m587.43 707.4-9.55-9.35" stroke="#7599e9"/><g stroke="#fff"><path d="m1015.17 627.82h-38.05l-11.75 26.48 11.74 26.48h38.04l13.31-26.62z"/><path d="m965.91 653.09-8.86 15.32"/><path d="m1027.92 653.09 8.85 15.32"/><path d="m886.13 627.82h-38.05l-11.75 26.48 11.73 26.48h38.05l13.31-26.62z"/><path d="m836.86 653.09-8.85 15.32"/><path d="m898.88 653.09 8.85 15.32"/></g><path d="m689.16 671.31.48-25.22 82.07 7.04-.48-10.62 25.17 18.77-26.14 13.34 1.35-9.44z" stroke="#7599e9"/><g stroke="#fff"><path d="m925.02 654.28 16.47.02"/><path d="m933.27 646.05-.02 16.47"/></g></g><path d="m681.15 320.98h319.28v228.52h-319.28z" stroke="#fff" stroke-width="2.171"/><g stroke-width="1.628"><path d="m687.34 330.7h299.83v25.93h-299.83z" stroke="#2b3479" transform="matrix(-1 0 0 -1 1674.5125 687.3337)"/><path d="m700.31 364.74h273.9v163.69h-273.9z" stroke="#7599e9" transform="matrix(-1 0 0 -1 1674.5125 893.1608)"/></g></g><g stroke="#7599e9" stroke-width="1.085"><path d="m823.48 364.74h27.55v163.69h-27.55z" transform="matrix(-1 0 0 -1 1674.5125 893.1608)"/><path d="m880.19 364.74h27.55v163.69h-27.55z" transform="matrix(-1 0 0 -1 1787.941 893.1608)"/><path d="m936.91 364.74h27.55v163.69h-27.55z" transform="matrix(-1 0 0 -1 1901.3695 893.1608)"/><path d="m766.77 364.74h27.55v163.69h-27.55z" transform="matrix(-1 0 0 -1 1561.0839 893.1608)"/><path d="m710.05 364.74h27.55v163.69h-27.55z" transform="matrix(-1 0 0 -1 1447.6554 893.1608)"/></g><g stroke-linecap="round" stroke-linejoin="round" stroke-width="2.171"><path d="m737.29 482.81c18.13 2.56 36.92-13.58 44.56-23.33 6.01-7.67 14.96-22.34 22.77-33.28 16.33-22.88 48.15-26.67 69.33-2.49 12.97 14.81 20.44 30.24 27.04 39.14 7.34 9.89 23.28 20.18 45.2 17.98" stroke="#2b3479"/><path d="m737.29 407.5c18.13-2.56 36.92 13.58 44.56 23.33 6.01 7.67 14.96 22.34 22.77 33.28 16.33 22.88 48.15 26.67 69.33 2.49 12.97-14.81 20.44-30.24 27.04-39.14 7.34-9.89 23.28-20.18 45.2-17.98" stroke="#fff"/></g></g><path d="m143.39 718.52c-1.2-2.46-2.24-5.18-3.04-8.14-1.9-6.83-1.9-12.9-.15-17.49 1.47-3.86 4.22-6.64 7.57-8.28 2.16-1.05 4.51-1.53 5.54-.29.69-.59 1.88-.83 3.64-.46 6 1.35 10.97 6.64 14.35 13.56.95 1.95 1.79 4 2.45 6.14 4.69 14.72-.47 23.77-7.45 27.19-8.67 4.23-17.52-1.2-22.91-12.23zm25.1-14.34c-2.49-7.01-6.52-14.12-13.5-16.26-.7-.21-1.24-.54-1.64-.94-.71.73-2 1.11-3.1 1.64-6.81 3.33-6.95 10.78-5.54 17.73 3 14.74 11.92 24.04 19.83 20.17 6.15-3.01 7.63-11.96 3.95-22.34z" fill="#fff"/><path d="m182.21 732.75c.66-1 2.05-3.55 2.77-4.96.93-1.81 1.88-4.24 1.67-6.59-.15-1.66-.94-3.62-3.39-2.63-1.63.66-2.56 2.03-2.12 3.99 1.16.59 1.31 1.89.47 2.23-.85.34-1.83-.47-2.21-2.07-.68-2.88 1.67-5.04 3.55-5.79 2.34-.94 4.3-.24 5.13 1.83.24.59.38 1.28.42 2.07.12 2.52-.81 5.26-2.23 7.85-.6 1.1-1.31 2.32-2.04 3.44 2.31-1.16 5.01-2.36 7.1-3.21.95-.38 1.65 1.02.46 1.56-2.04.93-4.13 1.8-6.2 2.67-.63.37-1.17.65-1.67.85-1.83.73-2.34-.55-1.71-1.24z" fill="#7599e9"/><path d="m1536.7 975.29c1.53-5.58 3.97-12.92 6.71-20.86-6.2-1.27-12.71-2.07-22.24-4.51-2.11 5.67-4.22 11.31-6.08 17.01.52 2.5-.76 5.44-3.87 4.59-1.99-.55-2.76-2.13-1.92-4.72 4.35-13.37 9.98-26.56 14.35-40.27.49-2.73 1.49-4.99 4.36-4.2 2.71.74 1.99 3.5 1.38 5.26-2.02 5.96-4.21 11.74-6.38 17.48 8.41 2.14 14.74 3.1 22.11 4.48l6.5-17.92c.69-1.91 2.04-2.61 3.44-2.23 1.83.5 2.77 1.62 1.71 4.41-1.96 5.29-4.58 11.85-7.24 19.69-2.97 8.78-5.96 17.68-7.5 23.43-.63 2.31-2.25 2.73-3.6 2.35-1.55-.43-2.35-1.72-1.73-3.99z" fill="#fff"/><path d="m1573.58 964.76c.24-.88.52-1.74.81-2.65 5.2-15.84 17.34-24.33 27.54-21.53 8.96 2.46 13.52 11.16 9.71 25.02-.95 3.47-2.43 7.3-4.5 11.4-6.13 12.2-13.8 16.9-23.12 14.35-9.77-2.67-14.56-11.57-10.44-26.59zm28.26 10.03c7.85-17.21 7.18-27.12-1.14-29.4-5.78-1.58-15.78 3.51-20.96 18.32-4.35 12.43-2.11 20.79 5.9 22.99 6.41 1.76 11.9-2.47 16.2-11.91z" fill="#fff"/><path d="m1547.45 992.41c1.29-.44 4.33-1.77 5.97-2.55 2.11-.99 4.66-2.52 6.12-4.79 1.03-1.6 1.69-3.93-1.23-4.75-1.94-.55-3.73.05-4.71 2.13.64 1.35-.13 2.63-1.14 2.34-1.01-.28-1.33-1.71-.55-3.41 1.4-3.08 5.04-3.38 7.26-2.76 2.77.78 4.05 2.79 3.36 5.24-.2.7-.55 1.42-1.07 2.17-1.65 2.36-4.41 4.19-7.5 5.54-1.31.57-2.8 1.18-4.24 1.68 2.9.57 6.18 1.36 8.66 2.07 1.13.32.78 2.08-.67 1.74-2.5-.59-4.99-1.26-7.47-1.93-.83-.1-1.51-.23-2.11-.4-2.16-.62-1.73-2.14-.68-2.32z" fill="#7599e9"/><path d="m575.35 469.03c1.02-.91 3.3-3.32 4.51-4.66 1.56-1.73 3.32-4.13 3.78-6.79.33-1.87.03-4.28-2.98-3.9-2 .25-3.42 1.49-3.52 3.79 1.11.99.9 2.47-.14 2.6s-1.89-1.06-1.83-2.93c.09-3.38 3.33-5.07 5.62-5.36 2.86-.36 4.82 1 5.13 3.53.09.72.05 1.53-.15 2.41-.61 2.82-2.43 5.57-4.76 8.01-.99 1.03-2.12 2.18-3.26 3.2 2.89-.6 6.22-1.14 8.79-1.46 1.16-.15 1.53 1.61.06 1.86-2.53.43-5.09.78-7.63 1.13-.8.23-1.49.38-2.1.45-2.22.26-2.42-1.31-1.52-1.88z" fill="#7599e9"/><path d="m558.8 457.43c-.76-5.73-1.36-13.45-1.92-21.83-6.21 1.24-12.52 3.03-22.24 4.48.26 6.05.51 12.06 1 18.03 1.45 2.1 1.41 5.31-1.78 5.73-2.05.27-3.37-.89-3.6-3.61-1.18-14.01-1.12-28.35-2.43-42.68-.61-2.71-.56-5.17 2.39-5.56 2.78-.37 3.2 2.45 3.32 4.31.45 6.27.69 12.45.91 18.59 8.58-1.3 14.79-2.87 22.12-4.46l-.97-19.04c-.1-2.03.87-3.2 2.3-3.39 1.88-.25 3.18.41 3.28 3.4.24 5.64.38 12.7.97 20.95.68 9.25 1.38 18.61 2.19 24.5.31 2.38-1.01 3.38-2.4 3.57-1.6.22-2.84-.66-3.14-2.99z" fill="#fff"/><path d="m555.8 685.6c-.11-1.66-.06-3.42.17-5.26.51-4.26 1.91-7.66 3.94-9.82 1.71-1.82 3.89-2.75 6.15-2.89 1.45-.09 2.88.18 3.17 1.11.52-.17 1.25-.03 2.14.58 3.05 2.14 4.61 6.24 4.91 10.89.08 1.31.08 2.65-.04 4-.76 9.32-5.73 13.2-10.43 13.5-5.83.38-9.53-4.7-10.01-12.11zm17.35-2.25c.22-4.5-.4-9.4-3.82-12.21-.34-.28-.57-.59-.71-.9-.56.24-1.38.16-2.11.21-4.58.3-6.37 4.43-7.18 8.65-1.71 8.94 1.14 16.2 6.46 15.85 4.14-.28 7.02-4.95 7.36-11.6z" fill="#fff"/><path d="m541.27 737.83c0-3.16.22-7.37.52-11.95-3.45.22-6.99.74-12.35.83-.29 3.29-.59 6.56-.74 9.83.63 1.24.38 2.97-1.37 2.97-1.13 0-1.76-.72-1.69-2.21.36-7.66 1.42-15.42 1.74-23.26-.14-1.51.07-2.84 1.69-2.84 1.53 0 1.56 1.56 1.49 2.57-.2 3.43-.52 6.78-.83 10.12 4.73-.09 8.2-.5 12.28-.83l.83-10.37c.09-1.1.7-1.67 1.49-1.67 1.04 0 1.69.45 1.53 2.07-.27 3.07-.7 6.9-.97 11.41-.29 5.05-.59 10.17-.56 13.41 0 1.31-.79 1.76-1.56 1.76-.89.01-1.5-.55-1.5-1.84z" fill="#fff"/><path d="m599.76 737.83c0-3.16.22-7.37.52-11.95-3.45.22-6.99.74-12.35.83-.29 3.29-.59 6.56-.74 9.83.63 1.24.38 2.97-1.37 2.97-1.13 0-1.76-.72-1.69-2.21.36-7.66 1.42-15.42 1.74-23.26-.14-1.51.07-2.84 1.69-2.84 1.53 0 1.56 1.56 1.49 2.57-.2 3.43-.52 6.78-.83 10.12 4.73-.09 8.2-.5 12.28-.83l.83-10.37c.09-1.1.7-1.67 1.49-1.67 1.04 0 1.69.45 1.53 2.07-.27 3.07-.7 6.9-.97 11.41-.29 5.05-.59 10.17-.56 13.41 0 1.31-.79 1.76-1.56 1.76-.89.01-1.5-.55-1.5-1.84z" fill="#fff"/><g stroke="#fff" stroke-linecap="round" stroke-linejoin="round" stroke-miterlimit="10"><circle cx="1460.55" cy="717.42" fill="none" r="12.73" stroke-width="2.171"/><circle cx="1424.25" cy="711.6" fill="#d4e6fe" r="30.74" stroke-width="2.171"/><g fill="none"><g stroke-width="2.171"><circle cx="1432.05" cy="655.55" r="13.97"/><circle cx="1452.65" cy="763.07" r="13.14"/><ellipse cx="1362.52" cy="738.24" rx="14.4" ry="14.3"/></g><g stroke-width="1.628"><path d="m1427.75 688.27 1.97-18.74"/><path d="m1447.42 749.45-12.4-19.3"/><path d="m1376.75 735.36 20.85-8.44"/></g></g></g><g fill="#7498e9"><path d="m1429.58 707.72c-2.01-.16.5-3.11-2.45-3.35-3.24-.26-8.17 4.89-8.52 9.18-.14 1.78 1.56 2.9 3.24 3.04 3.49.28 5.98-2.22 7.87-2.07.65.05 1.11.59 1.05 1.32-.2 2.43-5.76 4.18-8.52 3.96-3.69-.3-6.9-2.12-6.56-6.23.56-6.92 7.95-13.09 13.59-12.63 1.86.15 2.16 3 2.05 4.33-.08.94-.44 2.55-1.75 2.45z"/><path d="m1366.04 743.9c-.04.47-.45.79-.93.75-.75-.06-.97-.67-.9-1.49.06-.78.16-1.55.23-2.35l.12-1.47c-1.69-.14-4.76-.15-6.28.51-.19 1.29-.32 2.48-.46 3.73-.05.43-.62.81-1 .78-.62-.05-.93-.38-.93-.76 0-.59.05-1.26.1-1.81.09-1.05.18-1.99.98-8.36.09-.75.33-2.19 1.48-2.1.53.13.97.42.93.95-.15 1.82-.72 3.74-.84 5.19-.01.08.01.14.14.15 1.52.12 4.64-.41 6.12-.61.07-.42.11-.92.15-1.45.07-.82.12-1.7.19-2.52.04-.55.47-1.22 1.17-1.17.58.05.91.43.87.93-.32 3.65-.77 6.74-1.14 11.1z"/><path d="m1458.13 766.49c.1.46-.2.88-.67.99-.74.16-1.12-.35-1.3-1.15-.17-.77-.3-1.53-.48-2.31l-.32-1.44c-1.65.36-4.6 1.25-5.85 2.34.2 1.29.42 2.46.66 3.7.08.43-.36.95-.73 1.04-.61.13-1-.09-1.11-.46-.18-.56-.32-1.22-.44-1.76-.23-1.03-.41-1.95-1.52-8.28-.13-.74-.33-2.19.8-2.44.54-.03 1.05.11 1.17.63.39 1.78.41 3.79.72 5.21.02.08.04.13.18.1 1.49-.33 4.31-1.76 5.67-2.38-.06-.42-.17-.91-.28-1.43-.18-.8-.39-1.66-.56-2.47-.12-.54.09-1.31.78-1.46.57-.13.99.14 1.1.63.78 3.58 1.26 6.67 2.18 10.94z"/><path d="m1435.66 661.82c-.05.47-.48.77-.96.71-.75-.09-.95-.7-.85-1.52.09-.78.21-1.54.31-2.34l.17-1.46c-1.68-.2-4.75-.32-6.29.3-.23 1.29-.41 2.46-.59 3.71-.07.43-.65.78-1.03.74-.62-.07-.91-.41-.9-.8.02-.59.1-1.25.16-1.8.12-1.05.25-1.98 1.27-8.32.12-.74.41-2.18 1.55-2.04.52.15.96.45.9.98-.21 1.81-.85 3.71-1.02 5.16-.01.08 0 .14.13.15 1.51.18 4.65-.25 6.13-.4.08-.41.14-.91.2-1.44.1-.82.18-1.7.28-2.51.06-.55.51-1.21 1.21-1.12.58.07.89.46.83.96-.42 3.63-.98 6.7-1.5 11.04z"/><path d="m1466.37 722.33c-.05.43-.45.71-.9.65-.69-.09-.87-.66-.78-1.41.09-.73.21-1.43.3-2.17l.17-1.36c-1.56-.2-4.41-.34-5.84.22-.23 1.19-.4 2.28-.57 3.44-.07.4-.61.72-.96.68-.57-.07-.84-.39-.83-.75.02-.55.1-1.16.16-1.67.12-.97.25-1.83 1.25-7.71.12-.69.4-2.02 1.46-1.88.48.14.89.43.82.92-.21 1.68-.82 3.44-.99 4.78-.01.08 0 .13.12.14 1.4.18 4.32-.19 5.7-.32.08-.38.14-.84.2-1.34.1-.76.18-1.58.28-2.33.06-.51.48-1.11 1.13-1.03.54.07.82.43.77.9-.42 3.37-.97 6.22-1.49 10.24z"/></g><g fill="none" stroke-linecap="round" stroke-linejoin="round" stroke-miterlimit="10"><g stroke-width="1.085"><g stroke="#7599e9"><path d="m328.01 545.5-16.85 16.68"/><path d="m327.93 562.26-16.69-16.85"/><path d="m395.32 575.93-16.84 16.69"/><path d="m395.24 592.7-16.68-16.85"/><path d="m361.64 606.37-16.85 16.69"/><path d="m361.56 623.14-16.68-16.85"/></g><g stroke="#fff"><path d="m302.86 504.98h134.63v124.84h-134.63z"/><path d="m273.77 483.71h163.72v114.99h-163.72z"/><path d="m273.77 483.71h163.72v83.88h-163.72z"/><path d="m273.77 483.71h163.72v52.76h-163.72z"/><path d="m403.67 504.98h33.82v124.84h-33.82z"/><path d="m369.99 504.98h33.82v124.84h-33.82z"/><path d="m336.31 504.98h33.82v124.84h-33.82z"/><path d="m302.63 504.98h33.82v124.84h-33.82z"/></g></g><g stroke="#7498e9" stroke-width="1.194"><path d="m273.77 483.71h29.09v146.11h-29.09z"/><path d="m273.77 505.3h29.09v30.71h-29.09z"/><path d="m273.77 536.57h29.09v30.71h-29.09z"/><path d="m273.77 567.84h29.09v30.71h-29.09z"/><path d="m273.77 599.11h29.09v30.71h-29.09z"/><path d="m308.63 477.72h21.26v33.26h-21.26z" transform="matrix(.00000008 -1 1 .00000008 -175.0918 813.6032)"/><path d="m342.49 477.72h21.26v33.26h-21.26z" transform="matrix(.00000008 -1 1 .00000008 -141.2234 847.4716)"/><path d="m376.36 477.72h21.26v33.26h-21.26z" transform="matrix(.00000008 -1 1 .00000008 -107.355 881.34)"/><path d="m410.23 477.72h21.26v33.26h-21.26z" transform="matrix(.00000008 -1 1 .00000008 -73.4866 915.2084)"/></g></g><g fill="#fff"><path d="m323.45 499.7c-.57 0-1.52-1.46-2.18-4-1.69.25-4.37.52-5.83.87-.32.72-.82 2.23-1.11 2.95-.17.42-.5.57-.82.57-.87 0-1.16-.5-1.16-.92 0-.99 1.36-3.38 1.68-4.07.82-1.78 3.62-7.84 5.04-7.84 1.71 0 4.14 8.63 4.54 9.75.25.75.65 1.46.65 2.16.01.33-.49.53-.81.53zm-6.2-7.02c-.3.57-.77 1.57-.9 1.79 1.52-.3 3.57-.7 4.27-.85-.23-.5-.92-3.4-1.61-3.4-.84 0-1.36 1.71-1.76 2.46z"/><path d="m291.17 525.73c-.65 0-1.74-1.67-2.49-4.57-1.93.29-5 .59-6.66 1-.36.82-.94 2.55-1.26 3.37-.19.48-.57.65-.94.65-1 0-1.32-.57-1.32-1.05 0-1.13 1.55-3.87 1.91-4.65.94-2.03 4.13-8.96 5.76-8.96 1.95 0 4.73 9.86 5.19 11.14.29.86.75 1.67.75 2.47-.01.37-.58.6-.94.6zm-7.09-8.02c-.34.65-.88 1.8-1.03 2.05 1.74-.34 4.08-.8 4.88-.98-.27-.57-1.05-3.89-1.84-3.89-.95.01-1.55 1.96-2.01 2.82z"/><path d="m347.76 498.33c-.02-.67-.03-1.36-.03-2.04 0-2.51.12-5.09.12-8.01 0-.35.25-.7.54-.79 1-.32 2.41-.57 3.27-.57 1.94 0 4.67.8 4.67 2.9 0 1.34-1.41 2.71-2.14 3.1.69.03 2.88.17 2.88 1.96 0 3.65-4.41 5.18-7.52 5.18-1.3-.01-1.75-1-1.79-1.73zm3.49-9.47c-.65 0-1.24.08-1.59.2 0 1.09-.02 2.18-.02 3.33 0 .25.02.45.4.45 1.07 0 4.04-1.14 4.04-2.65 0-.99-1.53-1.33-2.83-1.33zm.78 5.61c-1.06 0-2.06.12-2.38.3 0 1.46 0 2.29.02 3.18.15.22.67.22 1.04.22 1.83 0 4.51-1.69 4.51-2.76 0-.69-1.66-.94-3.19-.94z"/><path d="m280.25 557.82c-.02-.77-.04-1.55-.04-2.33 0-2.87.13-5.82.13-9.15 0-.4.29-.8.61-.9 1.15-.36 2.76-.65 3.73-.65 2.22 0 5.34.92 5.34 3.31 0 1.53-1.61 3.1-2.45 3.54.78.04 3.29.19 3.29 2.24 0 4.17-5.03 5.91-8.59 5.91-1.47 0-1.98-1.13-2.02-1.97zm3.98-10.81c-.75 0-1.42.1-1.82.23 0 1.24-.02 2.49-.02 3.81 0 .29.02.52.46.52 1.22 0 4.61-1.3 4.61-3.02 0-1.16-1.74-1.54-3.23-1.54zm.9 6.41c-1.21 0-2.35.13-2.72.34 0 1.67 0 2.62.02 3.64.17.25.77.25 1.19.25 2.09 0 5.15-1.93 5.15-3.16-.01-.78-1.9-1.07-3.64-1.07z"/><path d="m391.27 491.76c-1.34 0 .17-2.09-1.81-2.09-2.16 0-5.16 3.69-5.16 6.55 0 1.19 1.19 1.84 2.31 1.84 2.33 0 3.85-1.79 5.11-1.79.44 0 .77.34.77.82 0 1.62-3.6 3.08-5.44 3.08-2.46 0-4.69-1.04-4.69-3.79 0-4.62 4.57-9.11 8.34-9.11 1.24 0 1.59 1.88 1.59 2.76 0 .64-.15 1.73-1.02 1.73z"/><path d="m289.63 579.2c-1.53 0 .19-2.39-2.07-2.39-2.47 0-5.9 4.21-5.9 7.48 0 1.36 1.36 2.11 2.64 2.11 2.66 0 4.4-2.05 5.84-2.05.5 0 .88.38.88.94 0 1.86-4.11 3.52-6.22 3.52-2.81 0-5.36-1.19-5.36-4.33 0-5.28 5.23-10.41 9.53-10.41 1.42 0 1.82 2.14 1.82 3.16 0 .72-.17 1.97-1.16 1.97z"/><path d="m417.07 500.3c-.95 0-2.26-.15-2.26-1.37 0-1.29.25-2.88.25-4.24 0-1.81-.12-3.38-.12-5.04 0-.32.02-.64.03-.96.03-.62.6-1.36 1.27-1.36.07 0 .15.02.22.03 3.1.54 9.08-.57 9.08 4.79.01 4.77-4.2 8.15-8.47 8.15zm-.2-2.95c0 .59.6.67 1 .67 3.1 0 5.93-3.79 5.93-5.43 0-2.95-3.89-3.07-6.57-3.08.01 3.91-.36 5.87-.36 7.84z"/><path d="m285.15 622.62c-1.09 0-2.58-.17-2.58-1.57 0-1.47.29-3.29.29-4.84 0-2.07-.13-3.87-.13-5.76 0-.36.02-.73.04-1.09.04-.71.69-1.55 1.45-1.55.08 0 .17.02.25.04 3.54.61 10.37-.65 10.37 5.47-.01 5.43-4.81 9.3-9.69 9.3zm-.23-3.37c0 .67.69.77 1.15.77 3.54 0 6.78-4.33 6.78-6.2 0-3.37-4.44-3.5-7.5-3.52-.01 4.45-.43 6.69-.43 8.95z"/></g><path d="m501.02 816.45c-3.46-41.16-14.19-25.76-32.59-47.64-32.81-39.02-14.44 3.71-1.33 22.9 9.29 13.59 2.81 32.07 7.1 47.48 4.53 16.3 4.54 25.67 5.05 42.45.62 20.75-32.34 39.09-41.21 58.32-8.88 19.23-29.94 51.77-48.42 66.44 23.58 19.46 132.42 14.51 161.36-45.43 0 0-39.59-21.06-49.96-144.52z" fill="url(#w)"/><path d="m427.5 977.05c-1.91 19.11-3.81 43.33-.02 60.84 2.74 13.44-1.26 28.08-10.46 38.25s-23.36 15.63-37.01 14.25c-11.08-1.12-21.3-6.38-30.84-12.13-11.85-7.15-23.32-15.37-31.88-26.25-8.56-10.87 3.48-17.23 5.13-30.98 15.35-33.47 1.28-81.46-5.15-121.17z" fill="url(#x)"/><path d="m425.62 1000.99c-19.7-1.61-85.35-17.32-96.24-75.19 8.83 14.06 35.23 33.2 50.87 38.78 15.64 5.57 30.77 10.49 47.26 12.47z" fill="#331414"/><path d="m467.81 765.12c33.19 60.93 42.88 118.98 29.45 160.33-11.37 35.02-41.12 60.23-79.07 54.79-37.8-5.42-83.62-30.99-98.65-66.68-23.07 18.29-38.7-40.36-38.88-46.66-.18-6.13 1.35-15.24 8.65-19.32 6.82-3.81 13.14-4.68 18.89-3.17 7.17 1.89 14.29-3.3 15.07-10.8 2.56-24.92-8.85-39.44 21.64-70.54 9.32-9.5 15.6-22.34 27.37-28.41 15.33-7.9 34.06-6.32 50.06.15 15.99 6.47 31.11 19.51 45.47 30.31z" fill="url(#y)"/><path d="m312.88 859.63c-5.25-3.98-12.48-5.98-18.09 4.3-3.23 5.93-2.78 21.77 13.72 33.5" style="opacity:.7412;fill:none;stroke:#331414;stroke-width:1.0853;stroke-linecap:round;stroke-linejoin:round;stroke-miterlimit:10"/><path d="m496.26 829.83c-6.1-16.9-11.65-58-50.77-64.65-7.05-13.12-32.9-36.81-49.86-41.66 17.74-11.15 63.71-11.74 87.18 29.4 23.35 40.94 13.45 76.91 13.45 76.91z" fill="url(#z)"/><path d="m321.39 913.41c19.55 75.41 3.65 100.97 3.65 100.97-75.27 24.54-119.2-33.86-119.2-33.86s22.99-41.84 27.27-55.92c12.56-41.36 3.56-66.14 15.19-104.41 11.78-38.77 33.99-68.63 70.13-87.47 30.94-16.13 70.46-20.87 90.12-16.73 17.36 2.37 32.88 20.93 40.79 50.56-47.03 56.2-103.61 31.86-118.65 103.46-.26 1.24-1.73 1.6-2.15.41-1.15-3.19-2.33-6.43-3.05-8.66-2.7-8.37-10.61-14.21-19.39-13.8-.45.02-.9.06-1.35.1-18.33 1.99-22.96 15.25-21.46 25.92 2.42 17.44 22.46 45.25 38.1 39.43z" fill="url(#A)"/><path d="m392.36 732.06c-34.73-1.25-71.63 15.83-82.47 50.86-6.71 19.97-12.94 41.29-35.16 48.77 13.46-4.46 22.74-16.45 27.82-29.24 2.64-6.43 4.58-13.12 6.92-19.68 10.63-35.15 48.14-52.48 82.89-50.71z" fill="#3d1c1b"/><path d="m435.67 724.59c14.1-.05 27.95 8.34 34.45 20.85-7.15-12.06-20.46-20.12-34.45-20.85z" fill="#3b1b1d"/><path d="m284.91 835.27c13.06-11.02 61.5-9.19 62.71-9.3 148.22-12.53 126.54 45.25 124.27 45.25-8.67 0-10.79 11.42-15.32 16.8-24.68 26.62-71.56 26.46-97.84-9.92-3.09-4.27-2.98-7.88-7.39-19.74 0 0-44.47-14.08-57.81-5.49-3.1 1.99-5.72 5.15-7.46 8.98-2.18 4.8-9.15 4.2-10.39-.93-2.07-8.43-.64-17.32 9.23-25.65z" fill="url(#B)"/><path d="m389.23 896.56c15.98 9.69 48.15 13.2 67.33-8.53 4.37-4.95 7.03-11.3 13.22-14.67 1.76-.96 3.74-1.55 5.74-1.54 8.31.05 11.37 8.41 15.92 13.57 12.21 13.85 53.15-1.65 28.74-69.94-.58-1.63-2.18-2.41-3.92-2.63-46.33-5.95-122.07-1.67-154.94 12.76-1.04.44-3.43 51.97 27.91 70.98z" fill="url(#C)"/><path d="m472.45 874.91 9.15 21.4s-7.9 6.26-16.38 1.8" style="fill:none;stroke:#331414;stroke-width:1.0853;stroke-linecap:round;stroke-linejoin:round;stroke-miterlimit:10"/><path d="m422.36 917.67c2.2 13.27 25.68 23.59 33.62 12.61" style="fill:none;stroke:#331414;stroke-width:1.0853;stroke-linecap:round;stroke-linejoin:round;stroke-miterlimit:10"/><path d="m414.65 836.39c-1.79 2.55.56 3.83 2.8 2.84 2.88-1.28 5.99-2.12 9.09-2.69 1.21-.22 2.45-.41 3.54-1 1.08-.58 1.99-1.66 1.97-2.85s-.98-2.21-2.12-2.63-2.42-.36-3.63-.18c-4.46.66-8.96 2.67-11.65 6.51z" fill="#331414"/><path d="m499.52 823c1.8 1.67.2 3.05-1.69 2.65-2.43-.51-4.96-.65-7.45-.58-.97.03-1.96.09-2.89-.18s-1.81-.95-1.99-1.87.39-1.86 1.2-2.38c.81-.51 1.8-.68 2.77-.74 3.55-.22 7.35.59 10.05 3.1z" fill="#331414"/><ellipse cx="437.52" cy="864.32" fill="#331414" rx="6.47" ry="10.49" transform="matrix(.9914 -.1312 .1312 .9914 -109.6392 64.889)"/><ellipse cx="496.54" cy="856.51" fill="#331414" rx="6.47" ry="10.49" transform="matrix(.9914 -.1312 .1312 .9914 -108.1037 72.5658)"/><path d="m679.26 965.75c5.43 7.41 23.21 67.77 13.88 81.03-11.24-15.6-23.32-25.12-21.99-43.57 1.34-18.44-5.14-23.22 8.11-37.46z" fill="#1c61c2"/><path d="m734.63 929.38c9.35-7.5 18.07.93 9.12 11.6-7.61 9.06-30.3 16.94-24.4 15.74 8.86-1.8 26.12-4.93 36.6-6.44 7.45-1.07 7.55-.98 13.11 4.1 9.09 8.31 27.78 33.84 10.58 59.52-12.61 18.83-75.22 9.21-91.22 18.58-31.25 18.28-45.2-47.53-11.12-61.6 10.96-4.53 16.63-18.83 29.82-28.27 9.86-7.07 18.35-5.89 27.51-13.23z" fill="url(#E)"/><circle cx="743.1" cy="990.51" fill="url(#F)" r="39.12"/><path d="m710.24 1011.77c17.16-3.48 47.95-24.38 60.23-49.21.92 3.11 3.94 4.49 3.94 4.49-8.52 22.86-31.05 41.48-59.23 50.88-.65-4.07-4.94-6.16-4.94-6.16z" fill="url(#G)"/><circle cx="713.56" cy="996.13" fill="#f59848" r="2.07"/><circle cx="727.84" cy="988.62" fill="#f6a054" r="1.07"/><circle cx="710.3" cy="985.16" fill="#fabc7b" r="1.33"/><circle cx="719.05" cy="986.12" fill="#f7ab64" r=".69"/><circle cx="735.76" cy="957.2" fill="#fedcaa" r=".77"/><circle cx="740.52" cy="971.09" fill="#fedcaa" r="1.11"/><circle cx="740.22" cy="956.68" fill="#fabc7b" r="1.37"/><circle cx="740.89" cy="1022.92" fill="#f18228" r="1.69"/><circle cx="737.43" cy="1018.63" fill="#fabd7d" r=".98"/><circle cx="743.65" cy="982.82" fill="#f59a4b" opacity=".651" r="1.54"/><circle cx="729.76" cy="977.37" fill="#fedcaa" r=".6"/><circle cx="744.13" cy="1023.71" fill="#fabd7d" r=".6"/><circle cx="736.21" cy="990.8" fill="#fabc7b" r=".6"/><ellipse cx="727.52" cy="998.82" fill="#f6a054" rx="1.33" ry="1.28" transform="matrix(.0106 -.9999 .9999 .0106 -278.9851 1715.6749)"/><path d="m744.05 978.92c-.48.31-.96.62-1.43.93-.17.29.08.68.4.78s.66.01.99-.06.69-.12.98.05c.38.22.5.75.9.95.58.29 1.23-.38 1.29-1.02.06-.66-.25-1.35-.79-1.73s-1.36-.54-2.34.1z" fill="#f59848"/><path d="m717.91 993.83c-.36-.02-.71-.04-1.07-.07-.19.08-.21.37-.09.54s.33.26.52.34c.19.09.39.2.47.39.11.25-.03.57.09.82.18.36.76.27 1.03-.03.28-.31.38-.77.25-1.17-.12-.39-.47-.77-1.2-.82z" fill="#fabc7b" opacity=".769"/><path d="m729.71 1022.42c.44-.36.89-.72 1.33-1.08.14-.3-.15-.66-.48-.73s-.66.06-.98.16-.67.19-.98.05c-.4-.18-.58-.7-.99-.85-.61-.23-1.19.5-1.18 1.15.01.67.39 1.31.97 1.64s1.4.39 2.31-.34z" fill="#f49645"/><path d="m783.94 1005.75c-.13-3.22-2.67-2.86-5.81-3.39-4.55-.76-9.2-.95-13.79-.54-2.36.21-5.04.79-6.18 2.9-3.82 7.1 9.39 11.98 14.04 12.75 4.04.67 7.84-.06 10.49-3.23 2.86-3.4 1.34-6.39 1.25-8.49z" fill="url(#H)"/><path d="m786.13 984.13c-2.36-2.64-2.72-2.27-6.66-1.7-5.71.83-11.35 2.3-16.73 4.37-2.76 1.06-5.79 2.64-6.46 5.26-2.31 9.05 15.87 9.12 21.05 8.35 5.07-.75 7.57-.97 8.97-3.62 1.1-2.1 2.77-9.37-.17-12.66z" fill="url(#I)"/><path d="m773.6 963c-7.62 2.87-24.39 10.09-20.58 18.36 2.4 5.22 13.25 1.85 24.85-1.77 7.08-2.21 6.18-6.42 4.94-10.13-1.23-3.71-5.15-8-9.21-6.46z" fill="url(#J)"/><path d="m756.11 954.6c3.29-2.83 7.11-8.82 13.42-2.71s6.7 7.42-4.97 14.8c-7.83 4.95-14.17 5.61-16.33 1.33-2.19-4.31 3.99-10.08 7.88-13.42z" fill="url(#K)"/><path d="m327.09 1007.19c8.67 14.88 18.35 23.82 37.26 31.47 33.25 13.46 63.13-.78 63.13-.78-.56-6.8-4.05-10.92-2.15-27.09 21.39 10.13 35.18 37.13 44.26 56.17s12.54 39.6 14.81 60c6.43 57.88 9.06 197.09-2.5 254.41l-144.13-1.43c5.71-58.6 15.57-225.37-1.17-282.48-8.01-27.31-20-62.56-9.51-90.27z" fill="url(#L)"/><path d="m427.48 1037.89c.07-.02.14-.03.21-.06 8.89-5.04 11.88-14.24 5.07-19.78-1.76-1.43-5.87-6.3-7.68-7.28-1.79 8.61.25 18.24 2.4 27.12z" fill="#f46721" opacity=".69"/><path d="m441.36 979.72c2.93-1.34 15.35-.7 26.58-.1 12.85.69 30.97 8.58 43.5 11.53 84.81 20 98.73-3 167.83-25.4-5.07 18.2 1.47 64.74 13.88 81.03-53.26 37.15-112.09 65.97-181.03 38.42-16.94-25.04-47.9-81.76-70.76-105.48z" fill="url(#M)"/><path d="m479.29 1027.38c64.88 32.75 93.35 55.42 207.16 6.47 2.49 6.78 4.76 10.22 6.69 12.94-72.54 48.85-123.15 58.49-175.11 40.66-3.87-13.89-33.45-47.83-38.74-60.07z" fill="#437ccf"/><path d="m449.33 994.2c52.46 10.32 78.47 74.63 78.47 74.63s51.96 175.64 37.81 312.62l-91.76-.15c-.03-58.93.76-119.03.73-177.96-.02-36.25-.06-72.78-7.18-108.33-3.25-16.25-13.56-46.37-22.18-60.53-5.5-9.02-19.88-23.68-19.88-23.68s.16-19.67 1.88-29.16c12.94 1.25 16.62 14.67 22.11 12.56z" fill="url(#N)"/><path d="m486.33 1148.36c4.8-20.11 11.54-56.54 25.78-63.15-8.64-15.8-20.97-24.09-33.27-27.49 12.73-11.59 25.67-7.63 34.43-4.14-23.59-37.44-49.67-59.77-68.93-71.01 0 0 4.69-2.44-11.28-1.4-1.72 9.49 6.81 38.12 6.81 38.12s14.96 14.46 20.46 23.48c8.62 14.15 5.2 43.44 8.45 59.68 7.11 35.55 5.61 118.52 5.45 159.61 2.06-26.63 3.69-50.37 6.52-76.93 1.21-11.31 3.65-28.66 5.58-36.77z" fill="#1c61c2"/><path d="m474.39 1261.53c-.02-36.25-5.91-125.49-10.4-161.46-7.95-63.75-39.06-88.63-39.06-88.63s-1.58-9.11.38-30.53c9.75 0 14.84-.96 19.2-1.9 27.58 9.64 51.93 43.46 65.75 70.08-11.07-6.88-25.06-1.68-36.19 9.44 12.29 3.4 27.28 12.13 33.23 24.63-10.6 10.72-13.84 22.2-19.44 42.1-11.74 41.78-13.13 92.88-13.47 136.27" fill="url(#O)"/><path d="m508.53 1358.56c20.68 0 1.16-85.64 1.16-85.64s-5.51-.39-8.62 5.59c-12.95 24.91-14.7 60.95 7.46 80.05z" fill="#1c61c2"/><path d="m861.3 1243.12h-279c-.55 0-1 .45-1 1v14.74c0 .55.45 1 1 1h12.31l35.34 94.01c5.24 13.94 18.57 23.17 33.46 23.17h116.44c14.85 0 28.16-9.19 33.43-23.07l35.68-94.11h12.34c.55 0 1-.45 1-1v-14.74c0-.55-.44-1-1-1z" style="stroke:#2b3479;stroke-width:2.1706;stroke-linecap:round;stroke-linejoin:round;stroke-miterlimit:10;fill:url(#P)"/><path d="m833.91 1276.5s-22.31 50.64-30.82 68.56c-5.33 11.23-16.95 19.04-30.51 19.04h-106.3c-13.59 0-25.14-7.89-30.55-19.11-8.76-18.19-26.05-68.03-26.03-68.48 8.89-5.22 12.78 6.57 28.62 7.41 8.29.44 14.89-9.34 23.18-9.05 8.59.31 14.91 9.79 23.47 9.05 8.1-.71 13.07-8.5 21.18-9.05 8.51-.57 14.66 8.91 23.18 9.05 8.65.14 15.95-8.83 24.59-9.05 10-.25 11.34 9.05 21.35 9.05 11.45 0 14.66-8.38 21.14-9.05 6.38-.65 9.07 8.26 15.43 9.05 10.92 1.35 11.92-7.95 22.07-7.42z" fill="url(#Q)"/><circle cx="663.93" cy="1314.11" fill="#91baf3" r="15.31"/><circle cx="682.27" cy="1323.46" fill="#ceeafc" r="11.17"/><circle cx="669.67" cy="1344.55" fill="#bfdefa" r="6.64"/><circle cx="700.25" cy="1343.21" fill="#fff" r="4.71"/><circle cx="691.94" cy="1335.73" fill="#bfdefa" r="1.91"/><circle cx="681.14" cy="1303.99" fill="#7599e8" r="1.91"/><circle cx="648.62" cy="1330.68" fill="#fff" r="1.91"/><path d="m662.76 1306.43c-3.61.35-6.42 4.28-5.59 7.81" style="fill:none;stroke:#bbdbfe;stroke-width:1.0853;stroke-linecap:round;stroke-linejoin:round;stroke-miterlimit:10"/><circle cx="684.21" cy="1349.21" fill="#7599e8" r="4.97"/><path d="m491.31 1275.69c29.75 16.47 60.35-11.14 103.69-11.14l4.92 12.75s-3.59.55-8.23 1.96-11.82 2.97-10.82 7.72c.8 3.82 7.42 9.04 10.89 10.82 22.68 11.63 48.2 17.66 73.69 17.41 3.25-.03 7.51.6 8.06 3.8.53 3.03-2.9 5.11-5.81 6.11-18.02 6.21-37.97 6.67-56.25 1.28 15.61 5.11 31.9 8.1 48.18 5.91 3.56-.48 9.17-1.47 11.7 1.74 2.28 2.9-3.06 9.1-10.57 10.95-17.48 4.3-37.03 5.67-54.01-.33 14.43 5.25 34.33 5.74 49.82 3.35 1.2-.19 2.24.82 2.1 2.02-.89 7.81-27.75 11.71-39.03 10.74-12.36-1.06-25.58-2.87-35.51-8.5 12.27 7.84 27.13 11.55 41.64 10.38 2.5-.2 6.16.69 5.56 3.11-.21.83-.87 2.32-1.62 2.73-18.77 10.04-35.08 2.87-50.15-3.47s-28.7-18.21-43.39-25.39-29.1-2.71-46.1.48c-10.64-22.15-12.29-48.42 1.24-64.43z" fill="url(#R)"/><path d="m192.42 1381.45c2.13-63.12 4.71-123.6 13.28-187.6 5.21-38.9 10.79-79.56 29.18-112.62 18.42-33.11 60.28-49.93 93.24-67.46 37.91 50.9 65.12 91.42 78.54 153.83 13.97 64.99 38.49 151.54 41.64 213.85z" fill="url(#S)"/><path d="m233.37 1381.45s-.01-131.06 0-137.44c0 0 28.49-18.86 41.14-24.82 10.22 10.27 60.56-28.86 68.5-17 38.54 57.55 80.65 70.73 166.68 70.73-12.01 11.06-7.36 57.41-1.16 85.64-59.45 3.68-61.78 4.32-61.96 3.76 1.42 6.55 1.73 19.13 1.73 19.13z" fill="url(#T)"/><path d="m260.41 1138.31c14.36-4.24 27.71-1.86 37.93 8.41s31 29.65 38.94 41.51c38.54 57.55 86.39 84.7 172.41 84.7-12.01 11.06-5.58 78.77 1.75 84.96-12.71 8.42-127.69 7.71-181.85-17.05-73.08-33.42-93.05-92.78-96.21-97.56" fill="url(#U)"/><path d="m260.41 1138.31c16.07-5.1 31.88 2.11 42.6 12.44 39.53 38.12 55.43 86.77 121.94 109.66 26.47 9.11 56.76 11.89 84.75 12.51" style="fill:none;stroke:#437ccf;stroke-width:2.1706;stroke-linecap:round;stroke-linejoin:round;stroke-miterlimit:10"/><path d="m242.31 1058.88c27.53-27.53 52.73-45.71 81.18-47.12 7.18 19.76 21.58 31.18 36.95 55.69 30.61 48.8 49.32 109.37 59.21 163-16.89-38.51-58.38-77.3-94.53-103.41-10.52-7.6-25.84-14.84-42.42-19.2 5.23-10.6 9.71-20.32 18.91-28.52-22.65 1.67-35.97 13.67-50.22 29.36-8.27-14.05-11.25-32.71-9.08-49.8z" fill="#1c61c2" opacity=".651"/><path d="m241.62 1050.51c25.77-38.78 61.65-57.95 89.01-59.36-1.13 31.04 17.22 47.22 32 71.72 29.44 48.8 46 107.95 55.52 161.58-16.25-38.51-54.72-75.88-89.49-101.99-10.12-7.6-24.86-14.84-40.8-19.2 5.03-10.6 12.21-20.32 21.07-28.52-21.79 1.67-42.66 11.87-56.36 27.56-7.96-14.04-13.03-34.7-10.95-51.79z" fill="url(#V)"/><path d="m148.26 1257.92-26.4 26.58 26.4.13z" fill="#915028"/><path d="m148.26 1257.62h164.53v120.05h-164.53z" fill="#ac713e"/><path d="m170.99 1292.25-22.73-33.02h164.53v33.02z" fill="#915028"/><path d="m170.99 1284.63-22.73-27.01h164.53l22.73 27.01z" fill="#d0915e"/><g fill="#fff4e3"><path d="m166.16 1332.48c-.02-.91-.05-1.83-.05-2.76 0-3.39.16-6.88.16-10.82 0-.47.34-.95.72-1.06 1.36-.43 3.26-.77 4.41-.77 2.62 0 6.31 1.09 6.31 3.91 0 1.81-1.9 3.67-2.9 4.19.93.05 3.89.23 3.89 2.65 0 4.93-5.95 6.99-10.16 6.99-1.73 0-2.34-1.33-2.38-2.33zm4.71-12.78c-.88 0-1.67.11-2.15.27 0 1.47-.02 2.94-.02 4.5 0 .34.02.61.54.61 1.45 0 5.45-1.54 5.45-3.58 0-1.35-2.06-1.8-3.82-1.8zm1.06 7.58c-1.43 0-2.78.16-3.21.41 0 1.97 0 3.1.02 4.3.2.29.91.29 1.4.29 2.47 0 6.09-2.29 6.09-3.73 0-.93-2.24-1.27-4.3-1.27z"/><path d="m194.67 1334.34c-.77 0-2.06-1.97-2.94-5.41-2.29.34-5.91.7-7.88 1.18-.43.97-1.11 3.01-1.49 3.98-.23.57-.68.77-1.11.77-1.18 0-1.56-.68-1.56-1.24 0-1.34 1.83-4.57 2.26-5.5 1.11-2.4 4.89-10.59 6.81-10.59 2.31 0 5.59 11.65 6.13 13.17.34 1.02.88 1.97.88 2.92.01.45-.67.72-1.1.72zm-8.37-9.48c-.41.77-1.04 2.13-1.22 2.42 2.06-.41 4.82-.95 5.77-1.15-.32-.68-1.24-4.59-2.17-4.59-1.14-.01-1.84 2.3-2.38 3.32z"/><path d="m205.57 1320.44c-.84 0-.91-.02-2.01-.02-.59 0-1.36.02-1.38.38v6.77c0 3.44-.02 7.31-2.08 7.31-.57 0-1.04-.36-1.04-.9 0-3.17.25-6.36.25-9.96 0-1.83-.07-3.46-.48-3.46-1.09.07-2.56.07-3.08.07-1.02 0-2.44-.29-2.44-1.43 0-.93.86-1.38 1.67-1.38.7 0 1.45.09 2.19.09 2.94 0 6.4-.25 9.53-.25.7 0 1.54.5 1.54 1.27 0 1.26-1.29 1.51-2.67 1.51z"/><path d="m223.22 1333.39c0 .63-.52 1.11-1.18 1.11-1.02 0-1.38-.79-1.38-1.9 0-1.06.04-2.11.04-3.19v-1.99c-2.29 0-6.43.32-8.4 1.38-.11 1.77-.16 3.37-.2 5.07-.02.59-.75 1.16-1.27 1.16-.84 0-1.29-.41-1.34-.93-.07-.79-.07-1.7-.07-2.44 0-1.43.02-2.69.41-11.36.05-1.02.2-2.99 1.77-2.99.72.11 1.36.45 1.36 1.18 0 2.47-.57 5.11-.57 7.08 0 .11.02.18.2.18 2.06 0 6.2-1.06 8.17-1.49.05-.57.05-1.25.05-1.97 0-1.11-.02-2.31-.02-3.42 0-.75.5-1.7 1.45-1.7.79 0 1.27.48 1.27 1.15.01 4.95-.27 9.16-.29 15.07z"/><path d="m234.06 1332.48c-.02-.91-.05-1.83-.05-2.76 0-3.39.16-6.88.16-10.82 0-.47.34-.95.72-1.06 1.36-.43 3.26-.77 4.41-.77 2.62 0 6.31 1.09 6.31 3.91 0 1.81-1.9 3.67-2.9 4.19.93.05 3.89.23 3.89 2.65 0 4.93-5.95 6.99-10.16 6.99-1.73 0-2.34-1.33-2.38-2.33zm4.7-12.78c-.88 0-1.67.11-2.15.27 0 1.47-.02 2.94-.02 4.5 0 .34.02.61.54.61 1.45 0 5.45-1.54 5.45-3.58.01-1.35-2.05-1.8-3.82-1.8zm1.07 7.58c-1.43 0-2.78.16-3.21.41 0 1.97 0 3.1.02 4.3.2.29.9.29 1.4.29 2.47 0 6.09-2.29 6.09-3.73 0-.93-2.24-1.27-4.3-1.27z"/><path d="m255.55 1335.06c-4.3 0-7.63-3.01-7.63-7.56 0-5.75 5.21-10.14 10.59-10.14 4.14 0 7.63 3.06 7.63 8.06 0 6.86-7.83 9.64-10.59 9.64zm8.03-9.5c0-3.42-2.31-5.41-4.98-5.41-4.21 0-8.03 3.12-8.03 7.69 0 3.1 2.83 4.41 4.89 4.41 3.76.01 8.12-2.32 8.12-6.69z"/><path d="m284.65 1334.7c-.43 0-.97-.14-1.15-.61-.38-1.06-.7-2.6-1.18-4.71-.48-2.06-1.09-5.32-1.56-6.13-2.06 4.19-2.6 10.5-4.53 10.5-1.09 0-1.36-.52-1.58-1.43-.7-2.97-1.61-6.09-2.29-8.8-.38.86-1.86 5.97-1.86 8.87-.07 1.06-.25 2.49-1.74 2.49-.81 0-1.43-.66-1.43-1.52.02-1.56 1.31-5.79 2.06-8.89.38-1.56 1.06-7.08 3.24-7.08 1.52 0 1.74 3.08 2.06 4.71.34 1.77 1.11 4.12 1.74 5.48.45-1.22 1.47-3.42 2.58-6.47.38-1.09.91-3.49 2.42-3.49.82 0 1.24.79 1.45 1.47.88 2.94 1.61 8.96 2.38 11.5.5 1.61.82 2.81.82 3.19-.01.63-.8.92-1.43.92z"/><path d="m288.26 1332.48c-.02-.91-.05-1.83-.05-2.76 0-3.39.16-6.88.16-10.82 0-.47.34-.95.72-1.06 1.36-.43 3.26-.77 4.41-.77 2.62 0 6.31 1.09 6.31 3.91 0 1.81-1.9 3.67-2.9 4.19.93.05 3.89.23 3.89 2.65 0 4.93-5.95 6.99-10.16 6.99-1.72 0-2.33-1.33-2.38-2.33zm4.71-12.78c-.88 0-1.67.11-2.15.27 0 1.47-.02 2.94-.02 4.5 0 .34.02.61.54.61 1.45 0 5.45-1.54 5.45-3.58.01-1.35-2.05-1.8-3.82-1.8zm1.06 7.58c-1.43 0-2.78.16-3.21.41 0 1.97 0 3.1.02 4.3.2.29.9.29 1.4.29 2.47 0 6.09-2.29 6.09-3.73 0-.93-2.24-1.27-4.3-1.27z"/></g><path d="m1410.7 1324.87h202.82v43.05h-202.82z" fill="#2b3479"/><path d="m1461.17 1355.03v-17.27c0-2 1.62-3.62 3.62-3.62h94.17c2 0 3.62 1.62 3.62 3.62v17.27c0 2-1.62 3.62-3.62 3.62h-94.17c-1.99 0-3.62-1.62-3.62-3.62z" style="fill:#80c508;stroke:#2b3479;stroke-width:1.0853;stroke-linecap:round;stroke-linejoin:round;stroke-miterlimit:10"/><circle cx="1448.85" cy="1346.4" fill="#8cb3ff" r="5.38"/><circle cx="1424.89" cy="1346.4" fill="#8cb3ff" r="5.38"/><circle cx="1598.87" cy="1346.4" fill="#8cb3ff" r="5.38"/><circle cx="1574.91" cy="1346.4" fill="#8cb3ff" r="5.38"/><path d="m1419.61 1314.11-8.91 10.76h202.82l-9.27-10.76z" fill="#425299"/><path d="m1419.51 1314.11v-4.85c0-3.27 2.65-5.91 5.91-5.91h172.91c3.27 0 5.91 2.65 5.91 5.91v4.85z" fill="#8cb3ff"/><path d="m1410.7 1367.92v1.36c0 3.82 3.1 6.92 6.92 6.92h188.97c3.82 0 6.92-3.1 6.92-6.92v-1.36z" fill="#425299"/><path d="m1542.98 1187.58 6.53-6.23v-24.74c0-10.89-6.63-20.23-16.07-24.21l-11.51-11.96v-7.36h-21.81v7.36h.02l-10.72 12.6c-8.7 4.28-14.69 13.22-14.69 23.58v24.74l6.34 6.23h.04v4.97h-.04l-6.34 6.55v88.61c0 8.64 7 15.64 15.64 15.64h43.5c8.64 0 15.64-7 15.64-15.64v-88.61l-6.53-6.55h-.02v-4.97h.02z" style="stroke:#2b3479;stroke-width:1.0853;stroke-linecap:round;stroke-linejoin:round;stroke-miterlimit:10;fill:url(#W)"/><path d="m1539.83 1187.25 5.84-6.15v-24.05c0-10.82-6.54-20.1-15.89-24.13l-4.68-5.04h-26.81l-4.57 5.44c-8.87 4.22-15 13.25-15 23.72v24.05l5.67 6.15h.03v4.9h-.03l-5.67 6.47v87.2c0 8.64 7 15.64 15.64 15.64h35.66c8.64 0 15.64-7 15.64-15.64v-87.2l-5.84-6.47h-.02v-4.9h.03z" fill="url(#X)"/><g stroke="#2b3479" stroke-miterlimit="10"><g stroke-linecap="round" stroke-linejoin="round" stroke-width="1.0853"><path d="m1493.74 1098.91v-.74c0-2.09 1.7-3.79 3.79-3.79h26.98c2.09 0 3.79 1.7 3.79 3.79v.74z" fill="#5ab0ed"/><g fill="#4a8cf3"><path d="m1493.74 1098.91h34.56v14.16h-34.56z" transform="matrix(-1 0 0 -1 3022.0361 2211.9836)"/><path d="m1511.02 1098.91h17.28v14.16h-17.28z" transform="matrix(-1 0 0 -1 3039.3171 2211.9836)"/><path d="m1511.02 1098.91h8.64v14.16h-8.64z" transform="matrix(-1 0 0 -1 3030.6765 2211.9836)"/><path d="m1493.74 1098.91h17.28v14.16h-17.28z" transform="matrix(-1 0 0 -1 3004.7554 2211.9836)"/><path d="m1493.74 1098.91h8.64v14.16h-8.64z" transform="matrix(-1 0 0 -1 2996.115 2211.9836)"/></g></g><path d="m1474.71 1208.21h74.79v57.79h-74.79z" fill="#70a1e9" stroke-width="1.085"/></g><g fill="#daf1fa"><path d="m1491.21 1246.54c-.91 0-1.8-4.9-1.97-5.64-.19-.84-.28-2.34-.68-2.37-.47 0-1.78 4.45-2.76 6.79-.3.72-.91 1.13-1.34 1.13-.33 0-.63-.24-.86-1.03-.59-2.08-1.05-3.75-1.47-5.51-.38-1.62-1.55-5.34-1.55-6 0-.65.56-.99 1.17-.99.44 0 .86.23 1.03.68.82 2.2 1.2 6.75 2.13 8.16.37-.4 1.59-3.37 2.13-5.27.37-1.31.79-3.45 2.01-3.45.75 0 1.2.51 1.2 1.43.05.89.23 1.83.3 2.53.19 1.8.63 4.06 1.1 5.67 1.17-1.87 2.01-4.24 2.69-6.3.09-.26.66-3.49 2.06-3.49.59 0 1.1.42 1.1 1.01 0 .56-.84 2.56-1.06 3.16-.73 1.92-1.66 4.17-2.6 6.18-.57 1.16-1.2 3.31-2.63 3.31z"/><path d="m1507.98 1246.12c-.59 0-1.59-1.52-2.27-4.17-1.76.26-4.55.54-6.07.91-.33.75-.86 2.32-1.15 3.07-.17.44-.52.59-.85.59-.91 0-1.2-.52-1.2-.96 0-1.03 1.41-3.52 1.75-4.24.85-1.85 3.77-8.17 5.25-8.17 1.78 0 4.31 8.99 4.73 10.15.26.79.68 1.52.68 2.25-.01.36-.54.57-.87.57zm-6.45-7.31c-.31.59-.8 1.64-.94 1.87 1.59-.31 3.72-.73 4.45-.89-.24-.52-.96-3.54-1.67-3.54-.88-.01-1.43 1.77-1.84 2.56z"/><path d="m1516.92 1235.4c-.65 0-.7-.02-1.55-.02-.45 0-1.05.02-1.06.3v5.22c0 2.65-.02 5.64-1.61 5.64-.44 0-.8-.28-.8-.7 0-2.44.19-4.9.19-7.68 0-1.41-.05-2.67-.37-2.67-.84.05-1.97.05-2.37.05-.78 0-1.88-.23-1.88-1.1 0-.71.66-1.06 1.29-1.06.54 0 1.12.07 1.69.07 2.27 0 4.94-.19 7.35-.19.54 0 1.19.38 1.19.98-.02.97-1.01 1.16-2.07 1.16z"/><path d="m1528.8 1235.13c-.77 0-1.76-.12-2.79-.12-.93 0-2.36.23-3.18.52-.19.92-.24 1.9-.24 2.9 0 .42.21.44.52.44 1.19 0 3.66-.65 5.67-.82.65 0 1.2.44 1.2 1.05 0 .52-.26 1.08-.89 1.12-1.74.12-5.95.89-6.66.89-.09.31-.11.75-.11 2.49 0 .84.58.96 1.41.96 1.22 0 3.89-.68 4.89-.68.71 0 1.17.33 1.22.98 0 .65-.4 1.06-1.08 1.17-2.04.31-3.96.61-5.62.61-1.94 0-2.77-.42-2.77-2.81 0-2.83.42-6 .42-8.78 0-.8.38-1.45 1.19-1.6 2.11-.09 4.17-.66 6.37-.66.91 0 2.15.02 2.15 1.2-.01.93-.67 1.14-1.7 1.14z"/><path d="m1541.01 1246.03c-.66 0-2.37-1.81-3.39-2.67-1.47-1.24-2.32-1.78-3.16-1.78-.16 0-.16.31-.16.52 0 .49.05 1.47.05 1.92 0 .77-.14 2.57-1.31 2.57-.84 0-.87-1.13-.87-2.62 0-2.74.16-5.48.16-8.32 0-.42.02-.82.12-1.24.28-1.22 1.81-1.31 2.95-1.31 2.06 0 6.7.47 6.7 3.4 0 2.2-2.35 4.07-4.31 4.1.14.09 1.24 1.13 1.83 1.62 1.03.87 2.46 1.47 2.46 2.69.02.63-.4 1.12-1.07 1.12zm-6.82-6.74c.12.12.61.17.99.17 2.01 0 4.64-.79 4.64-2.37 0-1.54-3-2.01-4.54-2.01-.21 0-.4.02-.61.14-.53.36-.46 3.03-.48 4.07z"/></g><circle cx="1493.17" cy="1151.19" fill="#bfdefa" opacity=".502" r="1.7"/><circle cx="1530.57" cy="1181.1" fill="#7599e8" opacity=".69" r="1.7"/><circle cx="1530.57" cy="1282.46" fill="#bfdefa" opacity=".502" r="1.7"/><circle cx="1512.2" cy="1162.17" fill="#bfdefa" r="3.05"/><circle cx="1521.53" cy="1151.19" fill="#bfdefa" r="1.05"/><circle cx="1497.82" cy="1182.58" fill="#c7e4fa" opacity=".69" r="2.95"/><g fill="#bfdefa"><circle cx="1524.99" cy="1194.53" r="1.98"/><circle cx="1524.99" cy="1274.42" r="1.98"/><circle cx="1500.77" cy="1285.38" r="2.92"/><circle cx="1521.53" cy="1292.02" opacity=".69" r="3.77"/><circle cx="1520.48" cy="1177.1" opacity=".502" r="2.52"/></g><path d="m64.94 1402.34v-20.17c0-2.49 2.01-4.5 4.5-4.5h1572.79c2.49 0 4.5 2.01 4.5 4.5v20.17c0 2.49-2.01 4.5-4.5 4.5h-1572.79c-2.49 0-4.5-2.02-4.5-4.5z" fill="#2b3479"/><path d="m1268.99 1171.09c33.99 9.93 59.82 19.42 89.07 35.52" style="fill:none;stroke:#2b3479;stroke-width:2.1706;stroke-linecap:round;stroke-linejoin:round;stroke-miterlimit:10"/></svg>